<?xml version="1.0" standalone="no"?>
<!DOCTYPE svg PUBLIC "-//W3C//DTD SVG 20010904//EN"
 "http://www.w3.org/TR/2001/REC-SVG-20010904/DTD/svg10.dtd">
<svg version="1.0" xmlns="http://www.w3.org/2000/svg"
 width="612.000000pt" height="612.000000pt" viewBox="0 0 612.000000 612.000000"
 preserveAspectRatio="xMidYMid meet">

<g transform="translate(0.000000,612.000000) scale(0.100000,-0.100000)"
fill="#000000" stroke="none">
<path d="M2949 5701 c-2 -6 -45 -13 -99 -17 -78 -4 -98 -9 -110 -25 -16 -20
-50 -26 -91 -15 -16 5 -29 3 -33 -3 -4 -6 -15 -11 -24 -11 -9 0 -30 -7 -47
-16 -16 -9 -61 -23 -99 -31 -38 -8 -78 -20 -90 -28 -12 -7 -33 -15 -48 -19
-15 -3 -32 -15 -38 -26 -6 -11 -18 -20 -28 -20 -9 0 -46 -23 -82 -50 -76 -58
-68 -50 -125 -119 -43 -52 -49 -64 -46 -85 1 -4 -5 -13 -13 -20 -21 -16 -49
-123 -43 -163 4 -19 2 -42 -2 -51 -12 -25 -51 -168 -51 -190 0 -10 -4 -22 -10
-28 -6 -6 -11 -90 -13 -194 -4 -204 -1 -221 75 -378 38 -78 49 -125 53 -220 2
-40 6 -85 9 -100 3 -15 13 -100 21 -189 10 -110 21 -180 36 -220 12 -32 32
-103 44 -158 30 -127 55 -196 100 -265 52 -80 61 -120 45 -183 -17 -69 -51
-121 -89 -137 -46 -19 -38 -31 9 -13 22 9 42 24 45 34 4 11 10 19 14 19 4 0
14 19 21 43 16 51 34 75 20 26 -13 -44 -12 -58 1 -39 7 11 8 3 4 -30 -4 -25
-9 -53 -12 -64 -3 -10 -1 -16 5 -13 6 4 8 -34 7 -101 -1 -59 2 -96 6 -82 8 28
12 19 10 -25 -2 -24 0 -27 9 -15 9 11 10 1 7 -45 -3 -33 -3 -49 0 -35 9 48 21
42 29 -16 5 -44 9 -54 15 -39 6 16 8 13 8 -15 1 -26 4 -31 11 -20 8 12 10 10
10 -10 0 -17 3 -21 9 -12 10 16 41 -43 41 -80 0 -18 2 -20 9 -9 8 12 11 9 17
-13 4 -16 2 -32 -5 -39 -6 -6 -11 -20 -10 -32 0 -16 3 -14 14 10 13 28 16 28
19 -2 1 -7 6 -13 11 -14 15 -1 27 -28 19 -42 -4 -6 -4 -9 0 -5 10 8 45 -25 70
-66 20 -31 34 -156 18 -156 -5 0 -8 12 -5 28 3 23 2 24 -6 7 -9 -19 -10 -18
-11 5 -1 23 -2 23 -10 5 -8 -18 -9 -18 -9 -2 -1 10 -6 15 -11 12 -6 -3 -10 0
-10 7 0 9 -3 9 -10 -2 -8 -13 -10 -12 -10 3 0 9 -4 17 -10 17 -5 0 -10 6 -10
13 0 7 -9 19 -20 27 -11 8 -20 20 -20 27 0 7 -4 13 -10 13 -8 0 -28 57 -44
133 -4 15 -11 25 -16 22 -6 -4 -11 8 -11 27 -2 29 -2 30 -6 6 -3 -19 -10 -26
-24 -25 -10 1 -19 5 -19 10 0 4 -4 6 -8 3 -5 -3 -30 1 -56 9 -27 8 -52 12 -57
9 -5 -3 -9 -1 -9 5 0 6 -6 9 -12 6 -11 -3 -91 -13 -135 -17 -7 -1 -13 -5 -13
-10 0 -4 -7 -8 -17 -8 -23 0 -75 -41 -154 -123 -56 -58 -68 -76 -74 -114 -3
-25 -4 -47 -1 -51 3 -3 6 6 7 19 0 13 5 33 10 44 6 14 8 2 5 -40 l-5 -60 10
50 c21 104 20 102 29 80 7 -17 9 -15 9 12 1 33 16 52 24 31 3 -7 6 0 6 16 1
21 5 27 16 22 10 -4 15 1 15 14 0 11 6 20 14 20 8 0 17 6 19 13 9 20 6 -15 -3
-43 l-8 -25 -2 25 c-1 17 -5 10 -11 -20 -23 -123 -21 -118 -29 -90 -5 19 -8
11 -13 -35 -4 -33 -11 -74 -16 -90 l-9 -30 -2 35 c-2 34 -3 34 -11 -10 -4 -25
-8 -58 -8 -75 0 -26 2 -28 10 -10 6 14 8 0 4 -45 -14 -187 -15 -207 -6 -155 5
28 11 85 15 128 9 91 28 105 21 15 l-4 -63 9 55 c14 74 20 85 17 28 -1 -25 1
-44 6 -41 4 2 7 17 7 33 0 16 4 32 10 35 5 3 10 0 10 -7 0 -9 3 -9 10 2 7 11
10 5 11 -25 2 -37 2 -38 6 -7 5 36 22 44 24 10 1 -22 1 -22 10 2 9 26 4 -102
-8 -210 -3 -30 -3 -53 0 -50 3 3 11 61 17 130 15 145 28 178 24 58 -1 -46 0
-67 2 -48 2 19 7 55 11 80 l7 45 7 -50 6 -50 1 48 c1 26 7 47 12 47 6 0 10 -6
11 -12 0 -7 4 -4 9 7 6 15 9 4 11 -40 l3 -60 3 53 c3 43 7 52 21 50 11 -2 19
-16 23 -43 l6 -40 3 45 c3 38 5 33 10 -30 l6 -75 2 73 c2 91 20 94 25 5 2 -55
4 -47 7 42 3 109 4 109 10 40 4 -38 7 -55 8 -37 2 42 21 33 23 -11 2 -31 2
-30 10 8 5 25 7 -14 5 -105 -2 -80 0 -134 4 -120 5 14 8 78 9 143 1 71 5 117
11 117 6 0 11 -21 12 -47 1 -45 2 -43 8 17 6 55 7 43 10 -75 l4 -140 3 120 c2
66 8 124 13 129 7 7 10 -1 11 -19 l1 -30 9 30 c18 68 1 -271 -19 -365 -22
-104 -30 -156 -37 -240 -2 -34 2 -20 11 35 8 50 26 148 39 219 18 91 25 162
25 247 0 68 4 120 10 124 6 4 11 -16 12 -52 l1 -58 8 65 c4 40 6 0 4 -105 -2
-93 -6 -183 -9 -200 -3 -16 1 -5 9 25 8 32 15 113 16 195 2 77 5 145 8 150 3
6 8 -55 11 -135 l6 -145 4 155 c3 129 5 143 10 85 l6 -70 4 75 3 75 7 -50 c15
-96 11 -247 -11 -365 -29 -159 -47 -290 -39 -290 4 0 13 42 19 93 7 50 21 139
32 197 10 58 20 143 20 190 1 47 4 75 6 63 2 -13 11 -23 19 -23 21 0 18 -125
-5 -230 -11 -47 -22 -116 -25 -155 -5 -62 -3 -57 13 35 11 58 24 125 30 150 6
25 11 77 11 115 1 48 4 64 10 49 4 -11 8 -37 8 -58 0 -59 12 -55 14 5 l1 54 7
-65 7 -65 2 70 c1 56 4 66 13 51 6 -12 8 -44 5 -84 -9 -88 3 -72 13 20 l9 73
-3 -90 c-2 -89 -2 -90 11 -45 7 25 11 57 8 72 -4 15 -1 29 6 34 9 5 11 -11 7
-67 -3 -41 -2 -65 3 -54 4 11 8 43 9 70 l2 50 11 -45 11 -45 7 45 6 45 3 -60
3 -60 7 55 c4 40 8 50 14 37 5 -10 6 -37 3 -59 -4 -28 -2 -37 4 -27 5 7 9 32
9 54 0 22 4 35 8 29 11 -17 42 -25 42 -11 0 8 4 7 9 -3 11 -16 4 -33 -10 -25
-5 4 -9 -3 -9 -13 0 -11 -13 -50 -30 -86 -30 -69 -61 -234 -59 -317 1 -37 3
-33 11 26 5 39 13 90 18 115 9 43 9 43 5 -15 -13 -177 -14 -220 -5 -175 4 25
12 86 16 135 l9 90 6 -65 6 -65 2 55 c1 30 6 75 11 100 10 49 6 -118 -6 -227
-4 -39 -2 -53 4 -44 5 7 13 82 17 165 5 83 10 145 12 139 7 -19 21 -16 27 5 3
9 4 -11 2 -45 -3 -79 12 -83 17 -5 3 31 3 -8 2 -88 -2 -105 0 -127 5 -80 4 36
8 97 9 137 1 97 14 126 22 48 l6 -60 1 59 c2 46 5 57 16 53 8 -3 17 -1 20 6 2
7 5 3 5 -7 1 -20 1 -20 16 0 14 18 14 18 16 -6 l1 -25 8 25 c7 21 8 22 10 5 1
-11 4 -14 7 -7 12 30 23 6 25 -55 l2 -68 5 70 c4 43 9 63 13 53 10 -25 26 -22
32 5 8 35 -5 -366 -20 -578 -2 -43 -2 -76 2 -73 3 4 14 154 24 333 10 180 22
330 25 333 4 4 5 -27 3 -70 -2 -42 0 -74 4 -72 5 3 8 34 8 70 0 41 4 64 11 64
8 0 10 -17 7 -50 -7 -66 5 -54 13 13 5 42 7 31 9 -58 2 -60 5 -85 7 -55 1 30
6 80 10 110 l8 55 6 -65 6 -65 1 62 c2 72 19 93 25 31 l4 -43 1 44 c2 34 5 42
17 37 10 -3 16 1 16 12 1 9 5 -1 9 -23 7 -39 7 -39 9 -7 2 47 21 39 23 -10 l1
-43 7 50 c4 29 8 38 8 22 2 -35 21 -26 24 11 1 15 5 -20 8 -78 l6 -105 2 102
c2 93 14 139 25 96 4 -17 5 -17 6 0 0 9 6 17 11 17 6 0 10 -8 11 -17 1 -12 4
-10 9 7 6 17 9 -2 11 -65 3 -81 3 -83 6 -25 5 105 16 127 23 45 l6 -70 2 68
c2 61 13 85 25 55 3 -7 6 -2 8 12 1 18 4 13 8 -15 l7 -40 8 48 c5 29 13 47 22
47 8 0 14 9 14 20 0 11 5 20 11 20 6 0 8 -7 5 -16 -13 -33 -35 -688 -24 -699
3 -4 7 53 7 126 1 73 4 135 6 139 2 3 5 76 6 161 2 157 13 281 29 334 l10 30
-3 -33 c-2 -17 0 -32 5 -32 4 0 8 16 8 35 0 35 19 51 21 18 0 -16 2 -15 10 2
9 19 5 -92 -7 -175 -3 -27 -2 -30 5 -15 5 12 12 59 16 105 9 112 28 133 21 25
l-5 -80 11 78 c6 42 14 77 17 77 4 0 6 -28 5 -63 l-3 -62 8 58 c9 65 25 92 20
35 -2 -20 0 -40 4 -44 4 -4 7 9 7 29 0 39 19 63 21 25 1 -23 1 -23 10 2 5 16
7 -18 4 -90 l-3 -115 9 90 c15 138 29 170 23 50 -3 -55 -8 -111 -11 -125 -4
-20 -2 -22 6 -10 6 8 11 31 11 51 0 62 12 159 20 159 4 0 6 -30 5 -67 -1 -38
-1 -52 1 -33 9 82 14 98 32 96 11 -1 19 -13 23 -36 l6 -35 2 38 c0 20 6 37 12
37 7 0 9 -11 5 -27 -5 -28 -5 -28 9 2 l14 30 2 -55 2 -55 6 52 c7 56 20 81 22
42 1 -17 3 -19 6 -6 2 9 11 17 18 17 7 0 16 6 19 13 3 6 4 -42 1 -108 -3 -86
-1 -106 5 -70 4 28 9 78 9 113 1 36 5 62 11 62 7 0 8 -13 4 -36 -5 -27 -4 -35
5 -30 6 4 12 22 13 39 1 18 4 3 8 -33 l7 -65 3 58 c3 72 4 74 13 83 4 4 7 -6
8 -22 l1 -29 8 33 c10 45 20 52 21 16 l1 -29 8 30 c4 17 8 59 8 95 -1 53 -2
59 -8 30 -6 -30 -8 -26 -10 30 -1 49 -4 59 -10 40 -6 -20 -8 -15 -9 26 -1 33
-7 58 -18 72 -10 11 -27 31 -38 44 -11 12 -32 41 -46 63 -42 63 -85 103 -136
124 -25 10 -33 20 -34 40 -1 25 -2 25 -9 -4 -4 -16 -8 -25 -9 -19 -1 11 -168
13 -206 2 -70 -21 -115 -51 -115 -78 0 -20 -44 -63 -54 -53 -4 4 -9 -3 -13
-15 -3 -12 -12 -22 -21 -22 -8 0 -23 -6 -31 -14 -9 -7 -29 -16 -46 -20 l-30
-6 27 20 c15 12 30 20 32 18 3 -2 13 7 21 20 9 12 21 22 27 22 16 0 78 49 78
62 0 5 11 23 25 40 14 16 25 36 25 44 0 9 5 12 10 9 6 -4 10 6 11 22 0 25 1
26 9 8 7 -17 9 -14 10 15 1 27 3 31 9 16 5 -14 10 -16 15 -8 4 7 12 10 17 7 5
-4 9 2 9 12 0 15 2 16 10 3 8 -13 10 -12 10 3 0 20 16 23 23 5 3 -7 6 3 7 22
2 21 4 27 7 15 10 -45 16 -51 23 -25 8 25 8 25 9 2 1 -14 5 -21 12 -16 6 3 15
0 20 -7 6 -10 9 -7 10 11 l1 25 8 -25 c7 -20 8 -16 10 25 l3 50 10 -65 c8 -45
12 -56 15 -37 2 15 8 25 13 22 5 -4 9 0 10 7 0 7 4 4 9 -7 6 -13 9 -15 9 -5 1
13 2 13 11 0 6 -10 10 -11 10 -2 0 6 5 12 11 12 5 0 7 -5 4 -10 -3 -6 1 -17 9
-26 11 -10 16 -12 16 -3 0 7 3 9 7 6 3 -4 12 -2 19 4 10 8 11 5 6 -13 -5 -20
-3 -21 10 -10 14 11 16 10 11 -9 -4 -15 -3 -20 5 -15 7 4 12 3 12 -2 0 -14 38
-22 44 -8 3 6 3 0 0 -13 -4 -16 -3 -21 5 -17 6 4 14 -1 17 -11 3 -10 10 -26
15 -35 5 -10 9 -30 10 -45 1 -26 1 -26 11 7 6 19 8 67 5 105 -3 41 -1 60 3 45
5 -14 7 15 5 70 -3 64 -1 84 4 60 8 -35 8 -34 11 15 2 41 3 45 10 25 8 -24 8
-23 9 8 1 18 -3 31 -7 28 -5 -3 -9 1 -9 8 0 8 6 12 13 9 6 -2 15 1 20 8 4 7 3
10 -4 5 -6 -3 -13 -2 -17 3 -6 10 27 7 44 -3 5 -3 12 1 15 10 3 9 11 12 18 8
10 -6 10 -4 0 8 -11 13 -9 16 12 20 15 3 31 -1 40 -11 14 -13 16 -13 17 -1 1
8 1 18 0 23 -2 11 27 9 34 -3 3 -5 20 -10 36 -10 17 0 61 -13 99 -30 38 -16
72 -30 76 -30 9 0 197 -84 241 -108 17 -9 57 -34 90 -54 32 -20 72 -39 88 -43
25 -5 22 -1 -17 19 -26 14 -63 37 -83 50 -53 36 -251 131 -321 154 -34 11 -74
26 -90 34 -16 9 -65 28 -109 43 -44 15 -118 47 -165 70 -47 24 -130 62 -185
84 -55 23 -114 48 -131 55 -23 11 -39 33 -71 97 -22 46 -46 105 -53 131 -12
45 -11 49 18 100 43 75 118 300 126 379 6 56 13 72 40 103 19 20 39 55 45 78
7 24 18 167 26 318 13 257 16 280 42 355 16 44 31 85 35 90 10 17 50 128 60
170 14 59 21 163 12 183 -4 9 -8 28 -10 42 -4 45 -47 205 -56 208 -4 2 -8 10
-8 18 0 7 -22 39 -50 69 -27 30 -50 61 -50 68 0 17 -71 82 -112 103 -16 8 -36
31 -44 50 -10 23 -21 34 -35 34 -11 0 -18 4 -15 9 3 5 -1 14 -9 21 -8 7 -15
21 -15 31 0 11 -4 19 -10 19 -5 0 -10 9 -10 20 0 10 -10 25 -22 31 -13 7 -28
19 -34 27 -5 7 -26 15 -46 17 -22 2 -48 15 -69 34 -56 52 -182 111 -235 111
-29 0 -56 7 -72 19 -15 10 -38 22 -52 26 -14 4 -45 19 -70 34 -25 14 -58 26
-75 27 -16 0 -42 4 -56 8 -17 5 -28 4 -30 -3z m259 -643 c7 -7 12 -20 12 -29
0 -9 7 -19 15 -23 11 -4 14 -13 9 -31 -4 -15 -2 -25 5 -25 6 0 11 -4 11 -10 0
-5 -7 -10 -15 -10 -8 0 -15 -7 -15 -15 0 -8 7 -15 15 -15 9 0 31 -15 49 -34
25 -25 38 -31 50 -24 12 7 16 4 16 -12 0 -12 4 -19 9 -15 5 3 12 -3 16 -14 4
-14 13 -18 30 -15 13 2 27 0 30 -6 4 -6 11 -8 16 -4 6 3 13 -2 15 -12 3 -11
23 -26 44 -35 31 -14 38 -21 33 -38 -3 -11 -10 -18 -15 -15 -10 6 -7 -25 7
-79 5 -19 10 -25 15 -17 6 10 13 9 29 -2 11 -8 18 -18 13 -23 -4 -5 -2 -5 5
-1 17 10 63 -4 63 -19 0 -7 7 -16 15 -19 9 -3 15 -14 13 -23 -2 -10 2 -17 10
-15 6 1 13 -8 14 -20 2 -43 3 -47 12 -55 5 -5 6 -2 1 6 -5 9 -3 12 5 9 16 -5
22 -38 10 -53 -5 -6 -10 -25 -12 -42 -1 -18 -6 -31 -12 -30 -15 3 -46 36 -46
50 0 18 -52 40 -61 26 -4 -8 -13 -7 -30 2 -13 7 -30 12 -38 10 -7 -1 -10 2 -7
7 3 5 -18 7 -49 5 -44 -3 -56 -1 -61 12 -5 13 -8 14 -15 3 -6 -10 -11 -10 -20
-1 -6 6 -18 9 -27 6 -8 -4 -13 -2 -10 3 4 5 -10 10 -30 12 -21 1 -46 4 -57 6
-11 2 -24 1 -29 -2 -5 -3 -21 -6 -35 -8 -14 -1 -51 -10 -81 -19 -69 -21 -80
-23 -104 -24 -20 -1 -20 -1 -1 -15 11 -8 24 -12 29 -9 5 4 6 1 2 -6 -4 -6 -10
-9 -14 -7 -19 11 -101 15 -107 6 -5 -8 -11 -8 -20 0 -10 8 -19 8 -34 -2 -16
-10 -25 -10 -40 -1 -13 8 -22 8 -29 1 -7 -7 -14 -4 -21 10 -15 28 -61 38 -189
42 -42 2 -70 -3 -85 -13 -13 -8 -46 -18 -73 -22 -107 -13 -116 -16 -110 -30 3
-8 -3 -19 -14 -25 -14 -8 -20 -8 -20 0 0 6 -15 4 -37 -5 -21 -9 -40 -16 -43
-15 -3 1 -11 -8 -19 -20 -13 -20 -13 -21 13 -16 15 3 24 1 21 -5 -4 -5 -11 -7
-16 -4 -5 4 -9 1 -9 -4 0 -6 6 -11 13 -11 14 0 47 20 33 20 -6 0 -1 7 10 15
10 8 15 15 9 15 -5 0 -3 4 4 9 9 6 22 6 33 0 12 -7 18 -6 18 2 0 6 7 9 15 5 8
-3 15 -1 15 5 0 6 4 8 9 4 5 -3 12 -1 15 3 7 11 157 9 174 -2 7 -4 10 -12 7
-17 -4 -5 0 -9 8 -9 24 0 41 -28 28 -44 -9 -11 -9 -15 1 -18 10 -4 10 -9 -2
-23 -12 -15 -12 -17 -1 -10 9 5 12 4 8 -2 -4 -6 -43 -13 -87 -17 -45 -4 -100
-13 -123 -21 -48 -17 -69 -19 -47 -5 12 8 12 10 -3 16 -10 3 -37 -4 -65 -17
-26 -12 -51 -22 -56 -20 -5 1 -6 -8 -3 -19 4 -16 3 -19 -8 -10 -15 12 -48 2
-42 -14 2 -6 12 -10 21 -10 21 2 22 -42 1 -50 -32 -12 -12 -24 61 -35 54 -9
74 -16 71 -26 -4 -9 12 -16 54 -24 37 -8 59 -17 59 -25 0 -18 37 -27 85 -21
32 5 99 50 125 85 3 4 21 15 40 25 43 22 81 51 75 57 -3 3 12 13 34 22 28 13
45 31 62 65 21 39 28 46 54 46 40 0 63 -14 58 -35 -3 -10 5 -27 17 -38 12 -11
19 -25 16 -30 -3 -6 1 -13 10 -16 9 -4 14 -9 11 -12 -6 -6 23 -44 34 -44 4 0
5 10 2 23 -5 17 -3 20 7 10 7 -6 18 -9 25 -6 8 2 23 0 34 -7 16 -8 21 -8 22 2
0 10 2 10 6 0 2 -6 9 -10 13 -7 13 8 140 -52 140 -65 0 -7 7 -10 15 -7 8 4 17
2 20 -2 8 -14 -21 -32 -40 -25 -13 5 -16 3 -13 -7 3 -9 21 -15 47 -16 38 -1
41 1 35 19 -5 17 -3 18 13 10 27 -15 86 0 170 42 45 23 92 38 125 40 29 3 55
5 58 6 3 0 14 14 24 30 9 17 22 28 27 24 6 -3 0 -14 -12 -25 -20 -17 -18 -24
5 -20 5 1 6 -5 3 -13 -4 -9 2 -21 13 -29 11 -8 17 -17 14 -20 -4 -4 -1 -13 6
-22 10 -12 9 -16 -4 -21 -9 -3 -16 -10 -16 -16 0 -5 6 -6 13 -2 6 4 3 -2 -8
-13 -11 -11 -23 -19 -26 -17 -3 1 -6 -10 -7 -27 -4 -58 -6 -67 -15 -62 -4 2
-5 -7 -1 -22 5 -22 0 -32 -30 -61 -20 -19 -43 -34 -52 -34 -9 0 -22 -7 -29
-17 -7 -9 -26 -16 -43 -16 -17 0 -29 -4 -27 -7 3 -4 -15 -6 -40 -5 -25 2 -45
0 -45 -4 0 -13 -75 2 -102 20 -14 11 -29 19 -32 19 -3 0 -19 12 -35 26 -16 14
-32 26 -35 25 -3 0 -27 11 -52 24 -26 14 -53 25 -61 25 -7 0 -22 5 -32 11 -15
10 -22 8 -39 -9 -13 -13 -17 -24 -11 -28 6 -3 13 -3 16 0 8 8 93 -55 105 -77
6 -12 6 -23 -2 -32 -21 -25 -109 -35 -135 -15 -14 10 -29 7 -106 -24 -54 -22
-73 -25 -100 -18 -31 8 -76 2 -119 -15 -8 -4 -17 -7 -20 -7 -3 -1 -9 -4 -15
-7 -5 -4 -19 -5 -31 -4 -19 1 -20 -2 -11 -39 6 -23 14 -57 18 -76 12 -52 40
-76 95 -84 43 -5 84 -28 84 -46 0 -11 -105 -42 -145 -43 -41 -1 -82 19 -91 45
-3 10 -12 18 -21 18 -8 0 -17 9 -20 19 -7 29 -29 33 -66 13 -56 -32 -65 -33
-60 -9 4 18 3 19 -6 7 -6 -8 -11 -10 -11 -4 0 11 10 22 73 78 15 14 27 32 27
41 0 9 17 33 38 54 21 21 36 43 35 48 -2 6 3 16 12 23 8 7 15 19 15 26 0 8 6
14 13 14 19 0 87 78 81 93 -8 22 -63 14 -82 -11 -10 -13 -27 -24 -39 -25 -12
0 -20 -4 -18 -8 6 -9 -30 -40 -38 -32 -4 3 -7 1 -7 -5 0 -7 -9 -12 -20 -12
-11 0 -20 -4 -20 -10 0 -5 -7 -10 -15 -10 -8 0 -15 -4 -15 -8 0 -15 -66 -35
-120 -36 -30 -1 -60 -5 -67 -9 -7 -4 -23 -5 -38 -3 -14 3 -25 1 -25 -4 0 -5
-15 -4 -32 1 -42 12 -51 11 -43 -1 4 -6 11 -8 16 -5 5 3 6 -1 3 -10 -6 -14 -9
-13 -22 6 -13 19 -16 30 -21 79 -1 13 -2 13 -11 0 -5 -9 -5 -19 2 -27 6 -8 7
-13 1 -13 -6 0 -9 -12 -8 -27 1 -16 -3 -31 -9 -35 -7 -5 -7 -8 2 -8 7 0 10 -5
7 -10 -3 -6 1 -13 9 -16 12 -5 13 -10 5 -26 -8 -15 -8 -19 0 -14 6 4 11 0 11
-8 0 -9 5 -16 10 -16 6 0 10 -5 10 -11 0 -5 -4 -7 -10 -4 -18 11 -11 -1 12
-21 19 -15 20 -16 9 -1 -8 10 -9 17 -3 17 18 0 20 -24 3 -45 -9 -12 -10 -15
-1 -7 23 20 29 14 28 -23 -1 -21 -5 -31 -9 -24 -4 7 -6 17 -5 23 2 6 1 8 -1 3
-3 -4 -8 -5 -12 -2 -5 2 -6 -7 -3 -20 3 -16 0 -25 -8 -25 -9 0 -9 -4 1 -17 12
-14 10 -14 -14 2 -15 10 -26 23 -23 30 2 7 1 16 -4 21 -4 5 -17 43 -29 84 -13
41 -27 84 -31 95 -25 54 -32 86 -35 150 -4 71 6 98 31 88 12 -4 14 25 15 188
2 342 11 431 47 472 11 12 12 17 2 17 -9 0 -10 3 -1 13 6 8 8 17 4 20 -3 4 -2
7 4 7 6 0 14 7 17 16 4 10 2 13 -7 8 -9 -5 -9 -4 1 7 6 7 12 21 12 31 0 10 10
20 25 24 13 3 23 9 22 13 -1 4 24 32 56 62 31 31 55 58 51 61 -3 4 11 2 32 -2
24 -6 43 -5 50 1 8 7 14 6 17 -3 5 -10 9 -9 19 3 7 9 18 14 24 12 6 -2 17 4
25 14 9 11 10 14 2 9 -9 -5 -11 -2 -7 8 3 9 1 16 -5 16 -6 0 -11 5 -11 10 0 6
7 10 15 10 8 0 14 -3 14 -7 -3 -19 2 -27 10 -15 4 7 17 14 29 15 12 0 24 7 26
14 3 7 16 13 28 14 13 0 18 3 11 6 -8 3 2 19 27 45 22 22 40 45 40 51 0 7 5 4
11 -6 10 -18 11 -18 32 0 11 10 17 12 13 6 -13 -23 25 -14 47 10 l20 22 -6
-22 c-3 -13 -1 -23 4 -23 5 0 9 12 9 27 0 25 1 25 13 9 13 -18 15 -18 48 0 19
10 44 19 57 19 29 2 39 12 25 26 -8 8 -17 8 -32 0 -16 -9 -21 -9 -21 1 0 10
-2 10 -8 1 -4 -6 -23 -11 -41 -11 l-34 1 24 19 c13 10 29 22 36 28 7 5 19 7
28 4 9 -4 22 1 30 12 11 15 17 16 23 6 5 -7 16 -10 25 -6 10 3 17 1 17 -5 0
-6 5 -11 11 -11 5 0 7 5 4 10 -3 6 -1 10 4 10 20 0 11 -19 -19 -40 -17 -12
-28 -26 -24 -31 3 -5 13 0 22 11 17 21 18 21 37 2 17 -16 26 -17 58 -9 26 7
41 6 51 -2 12 -10 14 -8 10 11 -5 20 -4 21 6 6 13 -22 32 -24 24 -3 -5 12 2
15 31 15 25 0 35 4 32 13 -2 6 -16 12 -31 11 -27 0 -28 2 -22 35 3 20 6 42 6
49 0 15 12 16 28 0z m46 -34 c4 -10 1 -14 -6 -12 -15 5 -23 28 -10 28 5 0 13
-7 16 -16z m-222 -16 c-7 -7 -12 -8 -12 -2 0 6 3 14 7 17 3 4 9 5 12 2 2 -3
-1 -11 -7 -17z m-332 -79 c0 -4 -9 -11 -20 -14 -11 -3 -20 -10 -20 -15 0 -5
-14 -18 -31 -31 -22 -16 -33 -19 -42 -10 -13 13 22 51 47 51 8 0 22 3 31 6 13
5 14 9 3 15 -9 6 -6 8 10 6 12 0 22 -4 22 -8z m707 -21 c-3 -8 -6 -5 -6 6 -1
11 2 17 5 13 3 -3 4 -12 1 -19z m-687 -12 c0 -2 -8 -10 -17 -17 -16 -13 -17
-12 -4 4 13 16 21 21 21 13z m-166 -58 c-10 -12 -13 -18 -6 -14 6 4 12 2 12
-3 0 -6 -5 -11 -11 -11 -5 0 -7 -5 -3 -12 5 -8 2 -9 -10 -5 -10 4 -20 7 -22 7
-12 0 -2 35 14 46 29 23 48 17 26 -8z m876 -28 c0 -5 -2 -10 -4 -10 -3 0 -8 5
-11 10 -3 6 -1 10 4 10 6 0 11 -4 11 -10z m-935 -19 c6 -10 -21 -41 -36 -41
-15 0 -10 22 9 36 21 16 20 16 27 5z m1035 -11 c19 -19 18 -56 -2 -44 -5 3 -7
12 -4 20 3 8 1 14 -3 14 -5 0 -11 7 -15 15 -7 20 0 19 24 -5z m-1010 -30 c0
-5 -5 -10 -11 -10 -5 0 -7 5 -4 10 3 6 8 10 11 10 2 0 4 -4 4 -10z m-70 -18
c0 -13 -12 -22 -22 -16 -10 6 -1 24 13 24 5 0 9 -4 9 -8z m1070 -372 c8 -5 11
-12 7 -16 -4 -4 -15 0 -24 9 -18 18 -8 23 17 7z m-20 -28 c0 -4 14 -8 31 -9
18 -1 39 -9 49 -18 9 -8 20 -12 24 -8 4 5 6 3 4 -4 -4 -16 60 -62 81 -58 25 5
24 -32 -2 -50 -12 -8 -26 -15 -32 -15 -5 0 -3 5 5 10 19 12 15 13 -90 16 -41
1 -109 5 -150 9 -56 5 -88 3 -127 -8 -44 -13 -51 -13 -46 -1 3 8 0 14 -7 14
-7 0 -10 7 -6 17 4 9 1 20 -6 24 -14 9 44 68 71 72 9 1 22 6 29 11 7 4 41 8
76 9 35 1 62 6 59 10 -3 5 4 4 16 -2 11 -7 21 -15 21 -19z m270 -52 c0 -5 -5
-10 -11 -10 -5 0 -7 5 -4 10 3 6 8 10 11 10 2 0 4 -4 4 -10z m-32 -45 c-3 -3
-9 2 -12 12 -6 14 -5 15 5 6 7 -7 10 -15 7 -18z m56 0 c-4 -8 -8 -15 -10 -15
-2 0 -4 7 -4 15 0 8 4 15 10 15 5 0 7 -7 4 -15z m-27 -53 c-5 -44 -18 -62 -46
-62 -11 0 -11 3 2 18 22 24 22 24 8 51 -9 16 -10 21 -1 16 7 -4 13 1 17 14 10
38 25 10 20 -37z m-380 7 c-14 -8 -22 -8 -30 0 -8 8 -3 11 19 11 25 -1 27 -2
11 -11z m-107 -99 c0 -5 -4 -10 -10 -10 -5 0 -10 5 -10 10 0 6 5 10 10 10 6 0
10 -4 10 -10z m537 -92 c-3 -8 -6 -5 -6 6 -1 11 2 17 5 13 3 -3 4 -12 1 -19z
m-515 -455 c10 -9 18 -22 18 -30 0 -8 4 -12 8 -9 12 7 39 -27 34 -42 -2 -7 1
-19 7 -26 15 -18 -6 -27 -31 -14 -12 6 -18 5 -18 -3 0 -12 -29 -38 -42 -39 -5
0 -8 13 -8 29 0 16 -5 53 -12 81 -10 43 -9 53 3 61 19 12 20 12 41 -8z m110
-340 c-5 -10 -14 -28 -20 -40 -7 -13 -12 -28 -12 -35 0 -6 -7 -18 -15 -27 -9
-9 -28 -31 -44 -50 -28 -33 -74 -51 -64 -25 2 7 11 10 19 7 10 -3 12 0 8 10
-3 8 -1 18 5 22 6 3 11 16 11 27 0 13 23 44 58 78 31 30 58 55 60 54 2 -1 -1
-10 -6 -21z m-468 -38 c14 -10 26 -21 26 -26 0 -5 5 -9 11 -9 5 0 7 6 3 13 -6
9 -5 9 8 0 8 -7 27 -14 42 -15 14 -1 26 -6 26 -10 0 -4 -16 -5 -36 -2 -25 4
-34 2 -30 -5 5 -8 -1 -8 -21 0 -31 12 -31 12 -56 -6 -11 -8 -31 -10 -57 -5
-24 4 -43 3 -51 -4 -9 -8 -10 -8 -6 0 5 9 -3 10 -29 4 -20 -5 -42 -6 -49 -4
-6 3 -18 -2 -25 -11 -8 -10 -9 -15 -1 -15 6 0 11 -7 11 -15 0 -8 7 -15 15 -15
8 0 16 -6 16 -12 1 -7 2 -17 4 -23 1 -5 3 -16 3 -23 1 -7 7 -10 12 -7 6 3 10
2 10 -3 0 -6 10 -8 22 -4 16 4 19 2 12 -9 -4 -8 -10 -23 -11 -34 -3 -18 -2
-18 15 3 14 18 25 22 47 18 62 -11 172 -20 238 -21 48 0 66 -3 63 -12 -4 -9 1
-10 19 -1 13 6 36 7 52 3 27 -6 27 -7 9 -20 -10 -8 -24 -11 -30 -8 -6 4 -4 -1
3 -11 14 -16 16 -16 27 -2 12 17 39 23 29 6 -5 -9 15 -15 38 -11 14 2 7 -14
-13 -27 -11 -7 -20 -8 -20 -3 0 5 6 12 13 15 6 3 1 4 -12 3 -14 -1 -26 -9 -28
-17 -4 -12 -3 -12 5 -1 7 10 11 5 14 -17 2 -17 1 -29 -4 -26 -4 3 -8 -1 -8 -8
0 -8 -3 -9 -8 -3 -11 15 -46 19 -36 4 5 -9 2 -10 -10 -6 -10 4 -22 7 -27 7 -6
0 -8 4 -5 8 3 5 -17 8 -44 8 -45 -1 -54 -6 -51 -28 1 -8 -26 -4 -35 5 -4 4
-16 7 -26 7 -10 0 -18 4 -18 10 0 5 -7 7 -15 4 -8 -4 -13 -10 -10 -14 3 -5 -4
-6 -15 -3 -11 3 -37 -4 -59 -15 -28 -15 -41 -18 -44 -9 -3 8 -12 5 -28 -10
-29 -27 -66 -34 -94 -20 -17 9 -18 8 -8 -4 8 -10 9 -19 1 -29 -8 -12 -9 -12
-4 3 3 11 0 17 -10 17 -8 0 -13 -4 -10 -9 3 -5 -1 -12 -10 -15 -8 -3 -12 -2
-9 4 3 6 1 10 -5 10 -6 0 -9 4 -6 9 3 5 -4 9 -17 10 -51 2 -67 6 -64 16 5 11
-18 37 -26 29 -2 -3 -7 2 -11 11 -4 11 -2 14 7 10 6 -4 3 1 -8 9 -11 9 -25 14
-32 12 -7 -3 -10 1 -6 9 3 8 9 13 13 10 5 -3 11 -1 14 4 4 5 -3 11 -15 13 -14
2 -23 12 -26 27 -2 14 -7 29 -12 35 -4 6 -7 21 -6 34 1 13 -3 26 -8 29 -6 4
-7 1 -2 -7 5 -9 4 -11 -3 -6 -7 4 -11 17 -10 30 2 18 7 22 23 19 11 -3 16 -1
10 4 -5 4 -11 15 -13 23 -2 8 0 12 3 8 4 -4 16 4 27 17 12 15 25 22 36 19 10
-4 13 -2 7 3 -5 4 -11 18 -13 29 -3 21 2 22 80 26 46 3 92 8 102 13 15 7 17 5
11 -6 -7 -10 -1 -9 18 4 55 36 155 42 201 12z m-649 -63 c4 -24 -20 -24 -42 0
-14 15 -14 19 -3 16 10 -2 14 3 12 16 -3 18 -2 18 13 3 9 -9 18 -25 20 -35z
m143 0 c-7 -7 -13 -19 -14 -26 -1 -6 -3 -17 -5 -25 -2 -7 2 -16 9 -18 6 -3 10
1 9 9 -2 7 -2 10 0 5 3 -4 10 -5 16 -1 7 3 2 -3 -11 -15 -13 -12 -18 -22 -12
-26 13 -8 3 -25 -13 -25 -7 0 -6 4 3 10 8 5 12 10 8 11 -5 1 -12 3 -18 4 -5 1
-15 3 -20 4 -18 2 -5 54 16 62 12 5 14 8 5 8 -11 1 -10 5 5 17 13 11 14 14 3
11 -9 -3 -16 1 -16 9 0 8 4 14 9 14 5 0 6 6 2 13 -4 6 2 3 14 -7 18 -15 20
-22 10 -34z m797 -71 c3 -5 1 -12 -4 -15 -5 -3 -11 1 -15 9 -6 16 9 21 19 6z
m472 -243 c-3 -8 -6 -5 -6 6 -1 11 2 17 5 13 3 -3 4 -12 1 -19z m60 -185 c-3
-10 -5 -4 -5 12 0 17 2 24 5 18 2 -7 2 -21 0 -30z m30 5 c-3 -8 -6 -5 -6 6 -1
11 2 17 5 13 3 -3 4 -12 1 -19z m-90 -90 c-3 -8 -6 -5 -6 6 -1 11 2 17 5 13 3
-3 4 -12 1 -19z m30 -30 c-2 -13 -4 -5 -4 17 -1 22 1 32 4 23 2 -10 2 -28 0
-40z m60 20 c-3 -7 -5 -2 -5 12 0 14 2 19 5 13 2 -7 2 -19 0 -25z m-10 -65
c-3 -10 -5 -2 -5 17 0 19 2 27 5 18 2 -10 2 -26 0 -35z m-20 -65 c-2 -18 -4
-4 -4 32 0 36 2 50 4 33 2 -18 2 -48 0 -65z m51 67 c-3 -3 -9 2 -12 12 -6 14
-5 15 5 6 7 -7 10 -15 7 -18z m9 -47 c-3 -8 -6 -5 -6 6 -1 11 2 17 5 13 3 -3
4 -12 1 -19z m-80 -20 c-3 -8 -6 -5 -6 6 -1 11 2 17 5 13 3 -3 4 -12 1 -19z
m115 0 c-7 -7 -12 -8 -12 -2 0 14 12 26 19 19 2 -3 -1 -11 -7 -17z m-65 -65
c-3 -10 -5 -2 -5 17 0 19 2 27 5 18 2 -10 2 -26 0 -35z m-150 -30 c-3 -10 -5
-4 -5 12 0 17 2 24 5 18 2 -7 2 -21 0 -30z m180 -35 c-2 -13 -4 -5 -4 17 -1
22 1 32 4 23 2 -10 2 -28 0 -40z m-150 -10 c-2 -13 -4 -5 -4 17 -1 22 1 32 4
23 2 -10 2 -28 0 -40z m80 -10 c-2 -13 -4 -5 -4 17 -1 22 1 32 4 23 2 -10 2
-28 0 -40z m170 -30 c-3 -8 -6 -5 -6 6 -1 11 2 17 5 13 3 -3 4 -12 1 -19z m33
8 c0 -3 -4 -8 -10 -11 -5 -3 -10 -1 -10 4 0 6 5 11 10 11 6 0 10 -2 10 -4z
m-990 -222 c0 -2 -9 0 -20 6 -11 6 -20 13 -20 16 0 2 9 0 20 -6 11 -6 20 -13
20 -16z m-155 -6 c-9 -6 -19 -7 -22 -4 -4 3 -1 6 6 6 7 0 9 4 6 10 -4 6 1 7
11 3 15 -6 15 -7 -1 -15z m135 -12 c0 -4 -7 -3 -15 4 -13 11 -14 10 -7 -11 10
-25 52 -33 60 -11 2 8 -3 10 -15 6 -16 -6 -16 -5 2 9 13 10 25 12 36 6 9 -4
20 -5 24 -1 4 4 4 -3 1 -15 -5 -15 -3 -23 5 -23 9 0 8 -4 -1 -15 -10 -12 -9
-15 5 -15 12 0 16 -6 12 -20 -3 -11 -1 -18 4 -14 5 3 9 12 9 20 0 9 5 12 12 8
8 -5 9 -2 4 11 -5 15 -4 16 8 6 9 -7 13 -23 10 -39 -5 -26 -5 -26 10 -7 9 12
11 24 5 29 -15 16 -10 29 6 16 12 -10 15 -10 16 1 0 8 5 3 11 -11 l10 -25 9
23 c10 26 17 29 15 5 -1 -23 -26 -39 -36 -24 -5 9 -10 8 -18 -2 -12 -15 4 -36
38 -51 8 -3 3 -4 -11 -1 -18 3 -26 0 -26 -10 0 -8 5 -15 11 -15 6 0 3 -5 -7
-11 -20 -12 -41 -3 -31 13 5 7 2 8 -6 3 -10 -6 -8 -12 8 -26 19 -15 20 -18 5
-23 -9 -4 -20 -2 -23 4 -5 8 -9 7 -13 -3 -5 -12 1 -15 26 -12 l32 4 -24 -18
c-14 -11 -31 -27 -39 -37 -13 -18 -13 -18 -10 0 2 12 -5 21 -21 27 -21 8 -22
8 -11 -7 12 -13 11 -17 -1 -25 -12 -7 -12 -10 0 -18 8 -5 9 -11 3 -15 -6 -3
-13 3 -17 14 -4 11 -11 18 -16 14 -5 -3 -7 -9 -5 -13 3 -4 -1 -8 -9 -8 -10 0
-12 4 -5 12 5 6 5 17 0 25 -7 11 -12 11 -23 2 -7 -7 -18 -8 -22 -4 -5 4 -5 0
-1 -8 4 -8 1 -7 -7 3 -11 14 -16 15 -21 5 -5 -10 -7 -10 -12 0 -3 7 -12 19
-21 27 -8 8 -11 15 -6 15 5 0 15 -6 22 -12 10 -11 11 -9 5 6 -5 12 -4 17 3 13
5 -3 10 0 10 8 0 12 -3 12 -14 3 -11 -9 -17 -8 -24 3 -5 8 -9 10 -9 6 0 -5 -5
-5 -10 -2 -8 5 -7 11 1 21 6 8 8 14 4 14 -4 0 -1 8 6 18 12 15 12 16 -2 5 -9
-7 -20 -9 -25 -5 -4 4 -4 0 1 -8 6 -9 3 -8 -7 2 -9 10 -19 18 -23 18 -4 0 -17
8 -29 18 -30 24 -27 47 6 47 22 -1 25 2 16 13 -14 16 -18 53 -6 46 5 -3 15 0
23 6 11 9 15 9 15 1 0 -6 -5 -11 -11 -11 -17 0 8 -27 31 -33 14 -4 18 0 15 14
-2 11 -7 25 -11 32 -5 7 0 6 11 -3 17 -14 17 -13 10 9 -5 17 -4 22 6 19 8 -3
14 -14 14 -25 0 -12 3 -25 8 -29 7 -7 11 16 7 49 -1 16 1 16 19 5 12 -7 21
-17 21 -22z m-95 -26 c3 -5 -1 -10 -10 -10 -9 0 -13 5 -10 10 3 6 8 10 10 10
2 0 7 -4 10 -10z m-240 -49 c-2 -5 7 -13 22 -20 14 -6 23 -15 19 -18 -3 -4 5
-14 20 -23 14 -10 24 -20 22 -23 -2 -4 13 -18 32 -32 19 -14 35 -30 35 -36 0
-5 7 -14 15 -20 11 -8 9 -9 -10 -4 -20 6 -18 2 12 -19 21 -15 37 -32 35 -39
-1 -7 6 -11 15 -11 10 1 15 -2 12 -7 -3 -5 5 -18 18 -29 20 -18 21 -19 3 -14
-17 6 -16 3 6 -21 21 -22 30 -25 45 -17 35 19 110 27 194 22 33 -2 32 -3 -13
-10 -57 -10 -173 -46 -206 -64 -22 -12 -27 -10 -72 32 -26 24 -47 49 -46 54 1
6 -4 13 -12 16 -9 3 -11 0 -6 -9 5 -8 6 -12 2 -9 -3 3 -6 10 -7 15 -3 16 -21
35 -34 35 -6 0 -4 -5 4 -10 8 -5 10 -10 4 -10 -6 0 -19 10 -28 23 -9 12 -14
16 -10 9 5 -11 2 -11 -14 -1 -12 7 -20 18 -19 23 1 6 -4 10 -11 8 -7 -1 -15 5
-18 13 -3 8 -11 12 -18 8 -6 -4 -5 1 3 11 12 14 19 67 11 79 -8 12 -6 37 3 37
8 0 7 4 -2 9 -7 5 -10 14 -7 20 4 6 3 11 -3 11 -5 0 -9 9 -8 19 0 11 5 17 9
15 5 -3 6 -9 3 -13z m567 -43 c-7 -7 -12 -8 -12 -2 0 14 12 26 19 19 2 -3 -1
-11 -7 -17z m82 7 c-4 -8 -11 -12 -16 -9 -6 4 -5 10 3 15 19 12 19 11 13 -6z
m-681 -85 c-3 -12 -8 -19 -11 -16 -5 6 5 36 12 36 2 0 2 -9 -1 -20z m577 -6
c0 -8 -5 -12 -10 -9 -6 4 -8 11 -5 16 9 14 15 11 15 -7z m-191 -85 c-16 -10
-23 -4 -14 10 3 6 11 8 17 5 6 -4 5 -9 -3 -15z m-212 -431 c-3 -8 -6 -5 -6 6
-1 11 2 17 5 13 3 -3 4 -12 1 -19z"/>
<path d="M2626 4811 c-3 -4 4 -17 17 -27 22 -19 22 -19 4 2 -9 11 -14 24 -10
27 3 4 4 7 0 7 -3 0 -8 -4 -11 -9z"/>
<path d="M3721 4364 c0 -11 3 -14 6 -6 3 7 2 16 -1 19 -3 4 -6 -2 -5 -13z"/>
<path d="M2206 4206 c3 -9 11 -16 16 -16 13 0 5 23 -10 28 -7 2 -10 -2 -6 -12z"/>
<path d="M2070 3706 c0 -2 7 -7 16 -10 8 -3 12 -2 9 4 -6 10 -25 14 -25 6z"/>
<path d="M2060 3681 c0 -5 5 -13 10 -16 6 -3 10 -2 10 4 0 5 -4 13 -10 16 -5
3 -10 2 -10 -4z"/>
<path d="M2097 3633 c-4 -3 -7 -13 -7 -21 0 -18 13 -7 16 13 2 17 1 18 -9 8z"/>
<path d="M2130 3340 c0 -5 5 -10 11 -10 5 0 7 5 4 10 -3 6 -8 10 -11 10 -2 0
-4 -4 -4 -10z"/>
<path d="M2139 3307 c5 -5 7 -16 4 -23 -3 -8 0 -14 7 -14 6 0 8 5 5 10 -3 6
-2 10 4 10 6 0 8 6 5 13 -3 8 -12 14 -20 14 -9 0 -11 -4 -5 -10z"/>
<path d="M3220 2816 c0 -2 7 -6 15 -10 8 -3 15 -1 15 4 0 6 -7 10 -15 10 -8 0
-15 -2 -15 -4z"/>
<path d="M2266 3111 c-4 -5 -2 -12 3 -15 5 -4 12 -2 15 3 4 5 2 12 -3 15 -5 4
-12 2 -15 -3z"/>
<path d="M2390 3031 c0 -5 5 -13 10 -16 6 -3 10 -2 10 4 0 5 -4 13 -10 16 -5
3 -10 2 -10 -4z"/>
<path d="M3005 1951 c-3 -5 -2 -12 3 -15 5 -3 9 1 9 9 0 17 -3 19 -12 6z"/>
<path d="M2796 1931 c-3 -5 1 -11 9 -14 9 -4 12 -1 8 9 -6 16 -10 17 -17 5z"/>
<path d="M2777 1865 c19 -25 33 -32 33 -15 0 6 -6 10 -12 10 -10 0 -10 2 0 9
11 7 10 10 -3 15 -31 11 -36 6 -18 -19z"/>
<path d="M2820 1865 c0 -5 5 -17 10 -25 5 -8 10 -10 10 -5 0 6 -5 17 -10 25
-5 8 -10 11 -10 5z"/>
<path d="M3109 1833 c-13 -16 -12 -17 4 -4 16 13 21 21 13 21 -2 0 -10 -8 -17
-17z"/>
<path d="M3027 1819 c7 -7 15 -10 18 -7 3 3 -2 9 -12 12 -14 6 -15 5 -6 -5z"/>
<path d="M3055 1780 c-3 -5 -1 -10 4 -10 6 0 11 5 11 10 0 6 -2 10 -4 10 -3 0
-8 -4 -11 -10z"/>
<path d="M3008 1773 c6 -2 18 -2 25 0 6 3 1 5 -13 5 -14 0 -19 -2 -12 -5z"/>
<path d="M3050 1746 c0 -17 24 -38 33 -29 11 11 8 23 -5 21 -7 -2 -12 3 -10
10 1 6 -2 12 -8 12 -5 0 -10 -6 -10 -14z"/>
<path d="M2637 1799 c7 -7 15 -10 18 -7 3 3 -2 9 -12 12 -14 6 -15 5 -6 -5z"/>
<path d="M2633 1705 c0 -8 4 -12 9 -9 5 3 6 10 3 15 -9 13 -12 11 -12 -6z"/>
<path d="M2700 1716 c0 -2 7 -7 16 -10 8 -3 12 -2 9 4 -6 10 -25 14 -25 6z"/>
<path d="M2798 1630 c24 -18 45 -30 48 -27 3 2 -12 15 -33 28 -57 36 -63 35
-15 -1z"/>
<path d="M2845 1566 c22 -19 42 -33 45 -30 5 6 -34 39 -65 55 -11 5 -2 -6 20
-25z"/>
<path d="M2798 1570 c12 -11 24 -20 28 -20 4 0 -1 9 -11 20 -10 11 -23 20 -28
20 -6 0 -1 -9 11 -20z"/>
<path d="M2850 1525 c7 -9 15 -13 17 -11 7 7 -7 26 -19 26 -6 0 -6 -6 2 -15z"/>
<path d="M2048 2704 c-27 -8 -48 -18 -48 -23 0 -5 17 -3 38 5 20 7 45 13 55
14 9 0 17 5 17 10 0 12 -4 12 -62 -6z"/>
<path d="M1915 2660 c-81 -24 -119 -40 -113 -46 3 -2 40 7 83 21 43 14 84 25
91 25 8 0 14 5 14 10 0 13 -2 12 -75 -10z"/>
<path d="M2232 2620 c0 -14 2 -19 5 -12 2 6 2 18 0 25 -3 6 -5 1 -5 -13z"/>
<path d="M1730 2613 c-44 -7 -174 -44 -185 -52 -5 -4 -37 -13 -70 -20 -79 -17
-205 -61 -205 -72 0 -5 -3 -8 -7 -7 -14 3 -163 -45 -163 -52 0 -4 17 -2 38 6
20 7 45 13 54 14 10 0 41 10 70 23 97 43 133 57 158 61 54 9 117 26 165 45 28
10 83 24 123 31 40 8 75 17 78 22 5 8 -11 9 -56 1z"/>
<path d="M2251 2594 c0 -11 3 -14 6 -6 3 7 2 16 -1 19 -3 4 -6 -2 -5 -13z"/>
<path d="M2241 2554 c0 -11 3 -14 6 -6 3 7 2 16 -1 19 -3 4 -6 -2 -5 -13z"/>
<path d="M2041 2533 c0 -10 3 -13 5 -6 3 7 13 9 22 6 15 -4 15 -3 2 6 -22 15
-30 14 -29 -6z"/>
<path d="M1944 2529 c-3 -6 -3 -13 0 -16 3 -4 6 -1 6 5 0 6 7 9 15 6 8 -4 15
-4 15 -1 0 11 -30 16 -36 6z"/>
<path d="M1982 2488 c-6 -23 -9 -44 -7 -46 2 -2 9 15 15 38 6 23 9 44 7 46 -2
3 -9 -14 -15 -38z"/>
<path d="M1891 2504 c0 -11 3 -14 6 -6 3 7 2 16 -1 19 -3 4 -6 -2 -5 -13z"/>
<path d="M2055 2499 c-9 -28 -2 -33 13 -9 6 11 8 21 3 25 -5 3 -13 -4 -16 -16z"/>
<path d="M2232 2500 c0 -14 2 -19 5 -12 2 6 2 18 0 25 -3 6 -5 1 -5 -13z"/>
<path d="M1850 2506 c0 -2 7 -6 15 -10 8 -3 15 -1 15 4 0 6 -7 10 -15 10 -8 0
-15 -2 -15 -4z"/>
<path d="M1956 2495 c-3 -9 -6 -22 -5 -28 0 -7 5 -1 10 12 5 13 8 26 5 28 -2
2 -6 -3 -10 -12z"/>
<path d="M2201 2474 c0 -11 3 -14 6 -6 3 7 2 16 -1 19 -3 4 -6 -2 -5 -13z"/>
<path d="M1863 2410 c0 -41 2 -58 4 -37 2 20 2 54 0 75 -2 20 -4 3 -4 -38z"/>
<path d="M1741 2423 c2 -35 2 -35 6 -8 3 16 10 33 16 37 8 5 6 8 -5 8 -14 0
-18 -8 -17 -37z"/>
<path d="M1901 2444 c0 -11 3 -14 6 -6 3 7 2 16 -1 19 -3 4 -6 -2 -5 -13z"/>
<path d="M1921 2444 c0 -11 3 -14 6 -6 3 7 2 16 -1 19 -3 4 -6 -2 -5 -13z"/>
<path d="M2221 2444 c0 -11 3 -14 6 -6 3 7 2 16 -1 19 -3 4 -6 -2 -5 -13z"/>
<path d="M1761 2424 c0 -11 3 -14 6 -6 3 7 2 16 -1 19 -3 4 -6 -2 -5 -13z"/>
<path d="M1991 2424 c0 -11 3 -14 6 -6 3 7 2 16 -1 19 -3 4 -6 -2 -5 -13z"/>
<path d="M1822 2410 c0 -14 2 -19 5 -12 2 6 2 18 0 25 -3 6 -5 1 -5 -13z"/>
<path d="M1966 2422 c-2 -4 -7 -25 -10 -47 -7 -45 -2 -38 13 18 9 35 8 46 -3
29z"/>
<path d="M2236 2408 c-3 -13 -5 -32 -5 -43 1 -11 5 -2 10 19 10 42 6 62 -5 24z"/>
<path d="M1320 2405 c0 -8 2 -15 4 -15 2 0 6 7 10 15 3 8 1 15 -4 15 -6 0 -10
-7 -10 -15z"/>
<path d="M1346 2405 c-3 -9 -6 -22 -5 -28 0 -7 5 -1 10 12 5 13 8 26 5 28 -2
2 -6 -3 -10 -12z"/>
<path d="M1601 2345 c-13 -41 -20 -83 -18 -92 4 -14 5 -14 6 3 0 12 10 52 22
89 11 37 19 69 16 71 -2 2 -14 -29 -26 -71z"/>
<path d="M1803 2385 c0 -22 2 -30 4 -17 2 12 2 30 0 40 -3 9 -5 -1 -4 -23z"/>
<path d="M1006 2394 c-44 -12 -207 -111 -221 -134 -10 -16 12 -12 29 5 8 8 18
15 23 15 5 0 23 13 40 29 41 37 86 60 135 67 21 4 38 10 38 15 0 4 10 10 23
12 18 3 18 4 2 4 -11 0 -42 -6 -69 -13z"/>
<path d="M1686 2374 c-4 -20 -5 -38 -3 -40 3 -3 8 11 11 32 4 20 5 38 3 40 -3
3 -8 -11 -11 -32z"/>
<path d="M2262 2385 c0 -16 2 -22 5 -12 2 9 2 23 0 30 -3 6 -5 -1 -5 -18z"/>
<path d="M1223 2385 c-3 -9 -3 -19 1 -22 3 -4 6 1 6 10 0 8 8 18 18 20 16 4
16 5 -1 6 -10 0 -20 -6 -24 -14z"/>
<path d="M1591 2393 c-1 -6 -4 -20 -7 -30 -5 -17 -5 -17 6 0 6 10 9 23 6 30
-3 9 -5 9 -5 0z"/>
<path d="M1632 2367 c-6 -18 -12 -40 -11 -48 0 -8 7 4 15 25 8 22 13 44 11 49
-1 4 -8 -7 -15 -26z"/>
<path d="M1712 2375 c0 -16 2 -22 5 -12 2 9 2 23 0 30 -3 6 -5 -1 -5 -18z"/>
<path d="M1842 2380 c0 -14 2 -19 5 -12 2 6 2 18 0 25 -3 6 -5 1 -5 -13z"/>
<path d="M1893 2350 c0 -30 2 -43 4 -27 2 15 2 39 0 55 -2 15 -4 2 -4 -28z"/>
<path d="M1932 2375 c0 -16 2 -22 5 -12 2 9 2 23 0 30 -3 6 -5 -1 -5 -18z"/>
<path d="M1151 2364 c0 -11 3 -14 6 -6 3 7 2 16 -1 19 -3 4 -6 -2 -5 -13z"/>
<path d="M1731 2364 c0 -11 3 -14 6 -6 3 7 2 16 -1 19 -3 4 -6 -2 -5 -13z"/>
<path d="M2311 2364 c0 -11 3 -14 6 -6 3 7 2 16 -1 19 -3 4 -6 -2 -5 -13z"/>
<path d="M2202 2350 c0 -14 2 -19 5 -12 2 6 2 18 0 25 -3 6 -5 1 -5 -13z"/>
<path d="M2281 2354 c0 -11 3 -14 6 -6 3 7 2 16 -1 19 -3 4 -6 -2 -5 -13z"/>
<path d="M1646 2324 c-4 -14 -5 -29 -2 -31 3 -3 8 7 12 21 3 15 4 29 1 32 -2
3 -8 -7 -11 -22z"/>
<path d="M2171 2334 c0 -11 3 -14 6 -6 3 7 2 16 -1 19 -3 4 -6 -2 -5 -13z"/>
<path d="M1521 2324 c0 -11 3 -14 6 -6 3 7 2 16 -1 19 -3 4 -6 -2 -5 -13z"/>
<path d="M1772 2320 c0 -14 2 -19 5 -12 2 6 2 18 0 25 -3 6 -5 1 -5 -13z"/>
<path d="M1923 2305 c0 -22 2 -30 4 -17 2 12 2 30 0 40 -3 9 -5 -1 -4 -23z"/>
<path d="M2301 2324 c0 -11 3 -14 6 -6 3 7 2 16 -1 19 -3 4 -6 -2 -5 -13z"/>
<path d="M4229 2328 c15 -20 2 -25 -17 -6 -17 17 -24 -9 -19 -78 l3 -59 2 68
2 67 25 -16 c22 -14 25 -14 25 -1 0 8 -8 21 -17 28 -16 13 -17 12 -4 -3z"/>
<path d="M4172 2305 c0 -16 2 -22 5 -12 2 9 2 23 0 30 -3 6 -5 -1 -5 -18z"/>
<path d="M1011 2304 c0 -11 3 -14 6 -6 3 7 2 16 -1 19 -3 4 -6 -2 -5 -13z"/>
<path d="M1071 2304 c0 -11 3 -14 6 -6 3 7 2 16 -1 19 -3 4 -6 -2 -5 -13z"/>
<path d="M1465 2290 c-4 -17 -5 -34 -2 -36 2 -3 7 10 11 27 3 18 4 34 2 36 -2
3 -7 -10 -11 -27z"/>
<path d="M1666 2305 c-3 -9 -6 -22 -5 -28 0 -7 5 -1 10 12 5 13 8 26 5 28 -2
2 -6 -3 -10 -12z"/>
<path d="M1741 2304 c0 -11 3 -14 6 -6 3 7 2 16 -1 19 -3 4 -6 -2 -5 -13z"/>
<path d="M2191 2304 c0 -11 3 -14 6 -6 3 7 2 16 -1 19 -3 4 -6 -2 -5 -13z"/>
<path d="M2326 2312 c-2 -4 -7 -25 -10 -47 -7 -45 -2 -38 13 18 9 35 8 46 -3
29z"/>
<path d="M1492 2290 c0 -14 2 -19 5 -12 2 6 2 18 0 25 -3 6 -5 1 -5 -13z"/>
<path d="M1542 2290 c0 -14 2 -19 5 -12 2 6 2 18 0 25 -3 6 -5 1 -5 -13z"/>
<path d="M1832 2280 c0 -19 2 -27 5 -17 2 9 2 25 0 35 -3 9 -5 1 -5 -18z"/>
<path d="M1131 2293 c-1 -6 -4 -20 -7 -30 -5 -17 -5 -17 6 0 6 10 9 23 6 30
-3 9 -5 9 -5 0z"/>
<path d="M1611 2284 c0 -11 3 -14 6 -6 3 7 2 16 -1 19 -3 4 -6 -2 -5 -13z"/>
<path d="M2292 2280 c0 -14 2 -19 5 -12 2 6 2 18 0 25 -3 6 -5 1 -5 -13z"/>
<path d="M1435 2260 c-4 -17 -5 -34 -2 -36 2 -3 7 10 11 27 3 18 4 34 2 36 -2
3 -7 -10 -11 -27z"/>
<path d="M1562 2270 c0 -14 2 -19 5 -12 2 6 2 18 0 25 -3 6 -5 1 -5 -13z"/>
<path d="M1706 2264 c-4 -14 -5 -28 -3 -31 3 -2 8 8 11 23 4 14 5 28 3 31 -3
2 -8 -8 -11 -23z"/>
<path d="M1761 2274 c0 -11 3 -14 6 -6 3 7 2 16 -1 19 -3 4 -6 -2 -5 -13z"/>
<path d="M1893 2255 c0 -22 2 -30 4 -17 2 12 2 30 0 40 -3 9 -5 -1 -4 -23z"/>
<path d="M2341 2274 c0 -11 3 -14 6 -6 3 7 2 16 -1 19 -3 4 -6 -2 -5 -13z"/>
<path d="M4263 2225 c0 -38 2 -53 4 -32 2 20 2 52 0 70 -2 17 -4 1 -4 -38z"/>
<path d="M1001 2264 c0 -11 3 -14 6 -6 3 7 2 16 -1 19 -3 4 -6 -2 -5 -13z"/>
<path d="M1631 2264 c0 -11 3 -14 6 -6 3 7 2 16 -1 19 -3 4 -6 -2 -5 -13z"/>
<path d="M1676 2249 c-8 -42 0 -50 9 -9 4 17 5 34 2 36 -2 3 -7 -10 -11 -27z"/>
<path d="M1776 2244 c-4 -20 -5 -38 -3 -40 3 -3 8 11 11 32 4 20 5 38 3 40 -3
3 -8 -11 -11 -32z"/>
<path d="M2262 2260 c0 -14 2 -19 5 -12 2 6 2 18 0 25 -3 6 -5 1 -5 -13z"/>
<path d="M1412 2250 c0 -14 2 -19 5 -12 2 6 2 18 0 25 -3 6 -5 1 -5 -13z"/>
<path d="M1720 2220 c-7 -28 -10 -53 -8 -55 3 -3 10 18 16 47 7 28 11 53 8 55
-2 2 -9 -19 -16 -47z"/>
<path d="M1851 2254 c0 -11 3 -14 6 -6 3 7 2 16 -1 19 -3 4 -6 -2 -5 -13z"/>
<path d="M1872 2245 c0 -16 2 -22 5 -12 2 9 2 23 0 30 -3 6 -5 -1 -5 -18z"/>
<path d="M2362 2245 c0 -16 2 -22 5 -12 2 9 2 23 0 30 -3 6 -5 -1 -5 -18z"/>
<path d="M4213 2210 c0 -36 2 -50 4 -32 2 17 2 47 0 65 -2 17 -4 3 -4 -33z"/>
<path d="M4282 2154 c-1 -84 -8 -143 -22 -195 -11 -41 -25 -99 -29 -129 -14
-82 -22 -218 -12 -195 4 11 9 47 10 80 2 71 5 88 37 221 21 84 24 120 21 220
l-3 119 -2 -121z"/>
<path d="M4311 2254 c0 -11 3 -14 6 -6 3 7 2 16 -1 19 -3 4 -6 -2 -5 -13z"/>
<path d="M1475 2220 c-4 -23 -5 -43 -2 -46 2 -3 7 14 11 37 4 23 5 44 2 46 -2
2 -7 -14 -11 -37z"/>
<path d="M1532 2235 c0 -16 2 -22 5 -12 2 9 2 23 0 30 -3 6 -5 -1 -5 -18z"/>
<path d="M1602 2240 c0 -14 2 -19 5 -12 2 6 2 18 0 25 -3 6 -5 1 -5 -13z"/>
<path d="M1651 2244 c0 -11 3 -14 6 -6 3 7 2 16 -1 19 -3 4 -6 -2 -5 -13z"/>
<path d="M1802 2240 c0 -14 2 -19 5 -12 2 6 2 18 0 25 -3 6 -5 1 -5 -13z"/>
<path d="M2231 2234 c0 -11 3 -14 6 -6 3 7 2 16 -1 19 -3 4 -6 -2 -5 -13z"/>
<path d="M4143 2210 c0 -25 2 -35 4 -22 2 12 2 32 0 45 -2 12 -4 2 -4 -23z"/>
<path d="M4166 2219 c-3 -17 -5 -48 -5 -68 1 -24 4 -15 10 29 9 68 6 92 -5 39z"/>
<path d="M4352 2220 c0 -19 2 -27 5 -17 2 9 2 25 0 35 -3 9 -5 1 -5 -18z"/>
<path d="M1376 2218 c-3 -13 -5 -32 -5 -43 1 -11 5 -2 10 19 10 42 6 62 -5 24z"/>
<path d="M1495 2190 c-4 -28 -5 -53 -2 -56 2 -3 7 19 11 47 4 28 5 53 3 56 -3
2 -8 -19 -12 -47z"/>
<path d="M1551 2224 c0 -11 3 -14 6 -6 3 7 2 16 -1 19 -3 4 -6 -2 -5 -13z"/>
<path d="M1622 2220 c0 -14 2 -19 5 -12 2 6 2 18 0 25 -3 6 -5 1 -5 -13z"/>
<path d="M1821 2224 c0 -11 3 -14 6 -6 3 7 2 16 -1 19 -3 4 -6 -2 -5 -13z"/>
<path d="M2201 2224 c0 -11 3 -14 6 -6 3 7 2 16 -1 19 -3 4 -6 -2 -5 -13z"/>
<path d="M2332 2210 c0 -19 2 -27 5 -17 2 9 2 25 0 35 -3 9 -5 1 -5 -18z"/>
<path d="M4121 2224 c0 -11 3 -14 6 -6 3 7 2 16 -1 19 -3 4 -6 -2 -5 -13z"/>
<path d="M1451 2214 c0 -11 3 -14 6 -6 3 7 2 16 -1 19 -3 4 -6 -2 -5 -13z"/>
<path d="M4383 2155 c0 -44 2 -61 4 -37 2 23 2 59 0 80 -2 20 -4 1 -4 -43z"/>
<path d="M4407 2223 c-3 -5 -1 -37 3 -73 l8 -65 -1 73 c-1 73 -2 78 -10 65z"/>
<path d="M1346 2198 c-3 -13 -5 -32 -5 -43 1 -11 5 -2 10 19 10 42 6 62 -5 24z"/>
<path d="M1401 2204 c0 -11 3 -14 6 -6 3 7 2 16 -1 19 -3 4 -6 -2 -5 -13z"/>
<path d="M1572 2200 c0 -14 2 -19 5 -12 2 6 2 18 0 25 -3 6 -5 1 -5 -13z"/>
<path d="M1692 2200 c0 -14 2 -19 5 -12 2 6 2 18 0 25 -3 6 -5 1 -5 -13z"/>
<path d="M1736 2179 c-4 -23 -5 -44 -2 -46 2 -2 7 14 11 37 4 23 5 43 2 46 -2
3 -7 -14 -11 -37z"/>
<path d="M4333 2185 c0 -22 2 -30 4 -17 2 12 2 30 0 40 -3 9 -5 -1 -4 -23z"/>
<path d="M4432 2195 c0 -16 2 -22 5 -12 2 9 2 23 0 30 -3 6 -5 -1 -5 -18z"/>
<path d="M4452 2200 c0 -14 2 -19 5 -12 2 6 2 18 0 25 -3 6 -5 1 -5 -13z"/>
<path d="M981 2194 c0 -11 3 -14 6 -6 3 7 2 16 -1 19 -3 4 -6 -2 -5 -13z"/>
<path d="M1591 2185 c0 -16 -10 -79 -21 -140 -34 -186 -32 -173 -20 -147 15
36 52 259 47 290 -4 27 -4 27 -6 -3z"/>
<path d="M1791 2194 c0 -11 3 -14 6 -6 3 7 2 16 -1 19 -3 4 -6 -2 -5 -13z"/>
<path d="M1835 2170 c-4 -23 -5 -43 -2 -46 2 -3 7 14 11 37 4 23 5 44 2 46 -2
2 -7 -14 -11 -37z"/>
<path d="M4311 2194 c0 -11 3 -14 6 -6 3 7 2 16 -1 19 -3 4 -6 -2 -5 -13z"/>
<path d="M4518 2203 c7 -3 13 -28 14 -66 l1 -62 7 60 c4 33 7 54 8 46 1 -8 5
-11 9 -7 9 8 -25 36 -41 35 -6 0 -5 -3 2 -6z"/>
<path d="M4607 2199 c7 -7 15 -10 18 -7 3 3 -2 9 -12 12 -14 6 -15 5 -6 -5z"/>
<path d="M1315 2160 c-4 -23 -5 -43 -2 -46 2 -3 7 14 11 37 4 23 5 44 2 46 -2
2 -7 -14 -11 -37z"/>
<path d="M1862 2180 c0 -14 2 -19 5 -12 2 6 2 18 0 25 -3 6 -5 1 -5 -13z"/>
<path d="M2370 2180 c0 -5 5 -10 10 -10 6 0 10 5 10 10 0 6 -4 10 -10 10 -5 0
-10 -4 -10 -10z"/>
<path d="M1385 2135 c-3 -26 -4 -49 -2 -51 3 -3 8 16 12 41 3 26 4 49 2 51 -3
3 -8 -16 -12 -41z"/>
<path d="M1613 2145 c0 -22 2 -30 4 -17 2 12 2 30 0 40 -3 9 -5 -1 -4 -23z"/>
<path d="M4583 2145 c0 -22 2 -30 4 -17 2 12 2 30 0 40 -3 9 -5 -1 -4 -23z"/>
<path d="M4654 2172 c4 -7 1 -12 -8 -12 -12 0 -16 -10 -15 -42 l2 -43 7 40 7
40 3 -55 4 -55 3 48 c3 38 7 47 19 43 12 -4 12 -2 4 14 -5 10 -15 22 -22 26
-7 4 -8 3 -4 -4z"/>
<path d="M1286 2129 c-4 -23 -5 -44 -2 -46 2 -2 7 14 11 37 4 23 5 43 2 46 -2
3 -7 -14 -11 -37z"/>
<path d="M1436 2134 c-4 -20 -5 -38 -3 -40 3 -3 8 11 11 32 4 20 5 38 3 40 -3
3 -8 -11 -11 -32z"/>
<path d="M1541 2154 c0 -11 3 -14 6 -6 3 7 2 16 -1 19 -3 4 -6 -2 -5 -13z"/>
<path d="M1682 2140 c0 -19 2 -27 5 -17 2 9 2 25 0 35 -3 9 -5 1 -5 -18z"/>
<path d="M4232 2150 c0 -14 2 -19 5 -12 2 6 2 18 0 25 -3 6 -5 1 -5 -13z"/>
<path d="M4313 2115 c0 -33 2 -45 4 -27 2 18 2 45 0 60 -2 15 -4 0 -4 -33z"/>
<path d="M4483 2135 c0 -22 2 -30 4 -17 2 12 2 30 0 40 -3 9 -5 -1 -4 -23z"/>
<path d="M1512 2130 c0 -19 2 -27 5 -17 2 9 2 25 0 35 -3 9 -5 1 -5 -18z"/>
<path d="M1551 2079 c-7 -45 -10 -83 -8 -85 2 -3 10 32 17 76 7 44 11 83 8 85
-3 3 -10 -32 -17 -76z"/>
<path d="M1776 2138 c-3 -13 -5 -34 -5 -48 1 -15 5 -7 10 19 9 47 6 68 -5 29z"/>
<path d="M4123 2043 c-9 -93 -9 -132 1 -168 l12 -47 19 63 c10 35 20 59 22 53
2 -5 -3 -31 -11 -57 -8 -26 -10 -47 -6 -47 5 0 11 8 13 18 3 10 6 5 7 -13 3
-49 49 129 55 210 l4 70 -10 -70 c-5 -38 -13 -81 -18 -95 l-9 -25 -1 25 c-1
20 -3 22 -11 10 -8 -12 -10 -10 -10 10 -1 16 -10 -2 -25 -45 -14 -38 -22 -59
-19 -45 3 14 7 43 9 65 l5 40 -11 -43 c-17 -69 -20 -43 -8 60 6 51 9 107 7
123 -1 17 -8 -25 -15 -92z m68 -144 c-5 -13 -10 -19 -10 -12 -1 15 10 45 15
40 3 -2 0 -15 -5 -28z"/>
<path d="M1406 2109 c-4 -23 -5 -44 -2 -46 2 -2 7 14 11 37 4 23 5 43 2 46 -2
3 -7 -14 -11 -37z"/>
<path d="M1456 2109 c-4 -23 -5 -44 -2 -46 2 -2 7 14 11 37 4 23 5 43 2 46 -2
3 -7 -14 -11 -37z"/>
<path d="M1632 2120 c0 -19 2 -27 5 -17 2 9 2 25 0 35 -3 9 -5 1 -5 -18z"/>
<path d="M1752 2125 c0 -16 2 -22 5 -12 2 9 2 23 0 30 -3 6 -5 -1 -5 -18z"/>
<path d="M4183 2105 c0 -27 2 -38 4 -22 2 15 2 37 0 50 -2 12 -4 0 -4 -28z"/>
<path d="M4261 2134 c0 -11 3 -14 6 -6 3 7 2 16 -1 19 -3 4 -6 -2 -5 -13z"/>
<path d="M4461 2134 c0 -11 3 -14 6 -6 3 7 2 16 -1 19 -3 4 -6 -2 -5 -13z"/>
<path d="M1702 2110 c0 -19 2 -27 5 -17 2 9 2 25 0 35 -3 9 -5 1 -5 -18z"/>
<path d="M4433 2090 c0 -30 2 -43 4 -27 2 15 2 39 0 55 -2 15 -4 2 -4 -28z"/>
<path d="M1262 2105 c0 -16 2 -22 5 -12 2 9 2 23 0 30 -3 6 -5 -1 -5 -18z"/>
<path d="M1332 2110 c0 -14 2 -19 5 -12 2 6 2 18 0 25 -3 6 -5 1 -5 -13z"/>
<path d="M1653 2095 c0 -22 2 -30 4 -17 2 12 2 30 0 40 -3 9 -5 -1 -4 -23z"/>
<path d="M1796 2099 c-8 -42 0 -50 9 -9 4 17 5 34 2 36 -2 3 -7 -10 -11 -27z"/>
<path d="M1521 2054 c-6 -37 -10 -68 -8 -71 3 -2 10 26 17 62 7 36 10 68 8 70
-3 3 -10 -25 -17 -61z"/>
<path d="M4702 2090 c0 -19 2 -27 5 -17 2 9 2 25 0 35 -3 9 -5 1 -5 -18z"/>
<path d="M1212 2085 c0 -16 2 -22 5 -12 2 9 2 23 0 30 -3 6 -5 -1 -5 -18z"/>
<path d="M4332 2085 c0 -16 2 -22 5 -12 2 9 2 23 0 30 -3 6 -5 -1 -5 -18z"/>
<path d="M4552 2085 c0 -16 2 -22 5 -12 2 9 2 23 0 30 -3 6 -5 -1 -5 -18z"/>
<path d="M4757 2103 c6 -4 13 -24 16 -43 4 -34 4 -33 3 4 -1 26 -6 41 -16 43
-10 3 -11 2 -3 -4z"/>
<path d="M1301 2084 c0 -11 3 -14 6 -6 3 7 2 16 -1 19 -3 4 -6 -2 -5 -13z"/>
<path d="M1351 2084 c0 -11 3 -14 6 -6 3 7 2 16 -1 19 -3 4 -6 -2 -5 -13z"/>
<path d="M1673 2065 c0 -22 2 -30 4 -17 2 12 2 30 0 40 -3 9 -5 -1 -4 -23z"/>
<path d="M2451 2084 c0 -11 3 -14 6 -6 3 7 2 16 -1 19 -3 4 -6 -2 -5 -13z"/>
<path d="M1232 2065 c0 -16 2 -22 5 -12 2 9 2 23 0 30 -3 6 -5 -1 -5 -18z"/>
<path d="M1502 2070 c0 -14 2 -19 5 -12 2 6 2 18 0 25 -3 6 -5 1 -5 -13z"/>
<path d="M1163 2035 c0 -27 2 -38 4 -22 2 15 2 37 0 50 -2 12 -4 0 -4 -28z"/>
<path d="M1322 2060 c0 -14 2 -19 5 -12 2 6 2 18 0 25 -3 6 -5 1 -5 -13z"/>
<path d="M1742 2055 c0 -16 2 -22 5 -12 2 9 2 23 0 30 -3 6 -5 -1 -5 -18z"/>
<path d="M2411 2064 c0 -11 3 -14 6 -6 3 7 2 16 -1 19 -3 4 -6 -2 -5 -13z"/>
<path d="M4404 2054 c-3 -16 -15 -62 -25 -103 -11 -41 -19 -89 -18 -105 1 -26
3 -24 11 14 5 25 18 82 29 128 12 46 18 86 15 89 -3 3 -8 -8 -12 -23z"/>
<path d="M4451 2059 c0 -14 -8 -50 -17 -80 -19 -64 -34 -170 -22 -163 4 3 8
19 8 35 0 16 9 65 21 109 11 44 18 90 16 103 -4 20 -4 20 -6 -4z"/>
<path d="M4465 2009 c-9 -39 -15 -73 -12 -75 4 -5 21 54 32 114 12 60 -2 33
-20 -39z"/>
<path d="M4672 2064 c-1 -12 -4 -37 -7 -55 -5 -31 -5 -32 5 -9 6 13 9 38 7 55
-2 18 -4 21 -5 9z"/>
<path d="M1253 2035 c0 -22 2 -30 4 -17 2 12 2 30 0 40 -3 9 -5 -1 -4 -23z"/>
<path d="M1371 2054 c0 -11 3 -14 6 -6 3 7 2 16 -1 19 -3 4 -6 -2 -5 -13z"/>
<path d="M1421 2054 c0 -11 3 -14 6 -6 3 7 2 16 -1 19 -3 4 -6 -2 -5 -13z"/>
<path d="M1463 2019 c-6 -28 -7 -47 -3 -42 9 9 24 93 17 93 -2 0 -9 -23 -14
-51z"/>
<path d="M4153 2035 c0 -22 2 -30 4 -17 2 12 2 30 0 40 -3 9 -5 -1 -4 -23z"/>
<path d="M4250 2042 c0 -15 -7 -55 -16 -87 -25 -91 -27 -116 -4 -55 21 55 38
170 26 170 -3 0 -6 -13 -6 -28z"/>
<path d="M4356 1951 c-16 -67 -26 -124 -23 -127 3 -3 10 21 17 53 6 32 18 84
27 115 8 31 13 62 11 69 -2 6 -17 -43 -32 -110z"/>
<path d="M4487 1997 c-23 -105 -21 -130 4 -37 11 41 18 84 17 95 -2 11 -11
-15 -21 -58z"/>
<path d="M4601 2054 c0 -11 3 -14 6 -6 3 7 2 16 -1 19 -3 4 -6 -2 -5 -13z"/>
<path d="M4711 1994 c-7 -41 -11 -78 -8 -80 2 -2 10 30 17 71 7 41 11 78 8 80
-3 3 -11 -29 -17 -71z"/>
<path d="M1342 2035 c0 -16 2 -22 5 -12 2 9 2 23 0 30 -3 6 -5 -1 -5 -18z"/>
<path d="M1622 2035 c0 -16 2 -22 5 -12 2 9 2 23 0 30 -3 6 -5 -1 -5 -18z"/>
<path d="M1692 2030 c0 -19 2 -27 5 -17 2 9 2 25 0 35 -3 9 -5 1 -5 -18z"/>
<path d="M4562 2000 c-7 -34 -11 -64 -8 -67 6 -6 29 104 24 118 -2 6 -9 -17
-16 -51z"/>
<path d="M4616 2021 c-4 -24 -5 -46 -2 -48 7 -7 19 63 14 79 -3 7 -8 -7 -12
-31z"/>
<path d="M4793 2025 c0 -22 2 -30 4 -17 2 12 2 30 0 40 -3 9 -5 -1 -4 -23z"/>
<path d="M1441 2034 c0 -11 3 -14 6 -6 3 7 2 16 -1 19 -3 4 -6 -2 -5 -13z"/>
<path d="M1762 2030 c0 -14 2 -19 5 -12 2 6 2 18 0 25 -3 6 -5 1 -5 -13z"/>
<path d="M2484 2036 c-3 -8 -4 -29 -1 -48 3 -28 4 -27 6 12 1 32 4 41 11 30 5
-8 12 -11 15 -8 9 8 -3 28 -16 28 -5 0 -12 -6 -15 -14z"/>
<path d="M4202 2030 c0 -14 2 -19 5 -12 2 6 2 18 0 25 -3 6 -5 1 -5 -13z"/>
<path d="M4332 1964 c-12 -49 -22 -98 -22 -109 1 -11 12 23 26 75 13 52 23
101 21 109 -1 7 -12 -27 -25 -75z"/>
<path d="M4506 1974 c-23 -94 -16 -109 9 -17 10 38 20 74 23 81 2 6 0 12 -4
12 -5 0 -17 -34 -28 -76z"/>
<path d="M4742 2020 c0 -19 2 -27 5 -17 2 9 2 25 0 35 -3 9 -5 1 -5 -18z"/>
<path d="M1181 2024 c0 -11 3 -14 6 -6 3 7 2 16 -1 19 -3 4 -6 -2 -5 -13z"/>
<path d="M1271 2024 c0 -11 3 -14 6 -6 3 7 2 16 -1 19 -3 4 -6 -2 -5 -13z"/>
<path d="M1481 1979 c-7 -33 -10 -63 -8 -65 2 -3 10 23 16 57 7 33 10 63 8 65
-2 3 -10 -23 -16 -57z"/>
<path d="M1641 2024 c0 -11 3 -14 6 -6 3 7 2 16 -1 19 -3 4 -6 -2 -5 -13z"/>
<path d="M4685 1995 c-3 -26 -4 -49 -2 -51 3 -3 8 16 12 41 3 26 4 49 2 51 -3
3 -8 -16 -12 -41z"/>
<path d="M4836 1989 c-4 -28 -5 -53 -3 -56 3 -2 8 19 12 47 4 28 5 53 2 56 -2
3 -7 -19 -11 -47z"/>
<path d="M1307 1966 c-4 -38 -6 -71 -3 -73 6 -7 19 101 14 123 -2 11 -7 -12
-11 -50z"/>
<path d="M1362 2010 c0 -14 2 -19 5 -12 2 6 2 18 0 25 -3 6 -5 1 -5 -13z"/>
<path d="M1406 1994 c-4 -20 -5 -38 -3 -40 3 -3 8 11 11 32 4 20 5 38 3 40 -3
3 -8 -11 -11 -32z"/>
<path d="M1591 2010 c-1 -14 -4 -36 -6 -50 l-6 -25 11 25 c6 13 9 36 7 50 l-4
25 -2 -25z"/>
<path d="M1713 1990 c0 -25 2 -35 4 -22 2 12 2 32 0 45 -2 12 -4 2 -4 -23z"/>
<path d="M4301 2014 c0 -11 3 -14 6 -6 3 7 2 16 -1 19 -3 4 -6 -2 -5 -13z"/>
<path d="M4581 1974 c-7 -30 -11 -57 -9 -60 3 -2 11 21 18 51 7 30 11 57 8 60
-3 3 -10 -20 -17 -51z"/>
<path d="M4642 2010 c0 -14 2 -19 5 -12 2 6 2 18 0 25 -3 6 -5 1 -5 -13z"/>
<path d="M1133 1960 c0 -36 2 -50 4 -32 2 17 2 47 0 65 -2 17 -4 3 -4 -33z"/>
<path d="M1222 1995 c0 -16 2 -22 5 -12 2 9 2 23 0 30 -3 6 -5 -1 -5 -18z"/>
<path d="M1733 1985 c0 -22 2 -30 4 -17 2 12 2 30 0 40 -3 9 -5 -1 -4 -23z"/>
<path d="M2461 2004 c0 -11 3 -14 6 -6 3 7 2 16 -1 19 -3 4 -6 -2 -5 -13z"/>
<path d="M1191 1939 c-7 -38 -11 -73 -8 -75 3 -3 10 27 17 66 7 39 10 73 8 76
-3 2 -10 -28 -17 -67z"/>
<path d="M1285 1960 c-4 -28 -5 -53 -2 -56 2 -3 7 19 11 47 4 28 5 53 3 56 -3
2 -8 -19 -12 -47z"/>
<path d="M1375 1965 c-3 -26 -4 -49 -2 -51 3 -3 8 16 12 41 3 26 4 49 2 51 -3
3 -8 -16 -12 -41z"/>
<path d="M1436 2002 c-2 -4 -7 -25 -10 -47 -7 -45 -2 -38 13 18 9 35 8 46 -3
29z"/>
<path d="M4314 1978 c-7 -32 -8 -32 -14 -8 -5 21 -9 13 -25 -43 -10 -37 -15
-70 -12 -74 4 -3 7 2 7 13 0 10 5 26 10 34 7 11 9 -1 5 -40 -4 -46 -1 -39 20
44 14 54 23 101 21 103 -2 3 -8 -11 -12 -29z"/>
<path d="M4756 1968 c-16 -104 -17 -114 -7 -92 11 24 26 134 18 134 -2 0 -7
-19 -11 -42z"/>
<path d="M4812 1980 c0 -19 2 -27 5 -17 2 9 2 25 0 35 -3 9 -5 1 -5 -18z"/>
<path d="M1111 1984 c0 -11 3 -14 6 -6 3 7 2 16 -1 19 -3 4 -6 -2 -5 -13z"/>
<path d="M1612 1975 c0 -16 2 -22 5 -12 2 9 2 23 0 30 -3 6 -5 -1 -5 -18z"/>
<path d="M1661 1984 c0 -11 3 -14 6 -6 3 7 2 16 -1 19 -3 4 -6 -2 -5 -13z"/>
<path d="M2504 1986 c-3 -8 -4 -25 -2 -38 3 -17 5 -13 9 15 5 38 2 47 -7 23z"/>
<path d="M1852 1965 c0 -16 2 -22 5 -12 2 9 2 23 0 30 -3 6 -5 -1 -5 -18z"/>
<path d="M4400 1940 c-7 -28 -10 -53 -8 -55 2 -3 10 18 17 46 7 27 11 52 8 55
-3 3 -10 -18 -17 -46z"/>
<path d="M1242 1955 c0 -16 2 -22 5 -12 2 9 2 23 0 30 -3 6 -5 -1 -5 -18z"/>
<path d="M1352 1950 c0 -19 2 -27 5 -17 2 9 2 25 0 35 -3 9 -5 1 -5 -18z"/>
<path d="M1520 1930 c-7 -28 -10 -53 -8 -55 2 -3 10 18 17 46 7 27 11 52 8 55
-3 3 -10 -18 -17 -46z"/>
<path d="M2541 1964 c0 -11 3 -14 6 -6 3 7 2 16 -1 19 -3 4 -6 -2 -5 -13z"/>
<path d="M4526 1958 c-3 -13 -5 -32 -5 -43 1 -11 5 -2 10 19 10 42 6 62 -5 24z"/>
<path d="M4625 1940 c-4 -23 -5 -43 -2 -46 2 -3 7 14 11 37 4 23 5 44 2 46 -2
2 -7 -14 -11 -37z"/>
<path d="M4732 1960 c0 -14 2 -19 5 -12 2 6 2 18 0 25 -3 6 -5 1 -5 -13z"/>
<path d="M1622 1914 c-8 -31 -11 -58 -9 -60 6 -7 30 93 25 106 -2 6 -9 -15
-16 -46z"/>
<path d="M1675 1925 c-3 -26 -4 -49 -2 -51 3 -3 8 16 12 41 3 26 4 49 2 51 -3
3 -8 -16 -12 -41z"/>
<path d="M1752 1940 c0 -19 2 -27 5 -17 2 9 2 25 0 35 -3 9 -5 1 -5 -18z"/>
<path d="M4652 1945 c0 -16 2 -22 5 -12 2 9 2 23 0 30 -3 6 -5 -1 -5 -18z"/>
<path d="M1152 1935 c0 -16 2 -22 5 -12 2 9 2 23 0 30 -3 6 -5 -1 -5 -18z"/>
<path d="M1495 1930 c-4 -17 -5 -34 -2 -36 2 -3 7 10 11 27 3 18 4 34 2 36 -2
3 -7 -10 -11 -27z"/>
<path d="M4596 1923 c-3 -21 -5 -56 -5 -78 1 -26 5 -14 10 34 9 79 6 108 -5
44z"/>
<path d="M1261 1934 c0 -11 3 -14 6 -6 3 7 2 16 -1 19 -3 4 -6 -2 -5 -13z"/>
<path d="M1646 1909 c-4 -23 -5 -44 -2 -46 2 -2 7 14 11 37 4 23 5 43 2 46 -2
3 -7 -14 -11 -37z"/>
<path d="M2520 1936 c0 -10 4 -15 9 -12 5 4 11 1 13 -5 2 -7 10 -4 18 7 10 12
11 15 2 10 -7 -4 -19 -2 -27 4 -12 10 -15 9 -15 -4z"/>
<path d="M1601 1924 c0 -11 3 -14 6 -6 3 7 2 16 -1 19 -3 4 -6 -2 -5 -13z"/>
<path d="M4802 1915 c0 -16 2 -22 5 -12 2 9 2 23 0 30 -3 6 -5 -1 -5 -18z"/>
<path d="M1391 1914 c0 -11 3 -14 6 -6 3 7 2 16 -1 19 -3 4 -6 -2 -5 -13z"/>
<path d="M1571 1914 c0 -11 3 -14 6 -6 3 7 2 16 -1 19 -3 4 -6 -2 -5 -13z"/>
<path d="M4671 1914 c0 -11 3 -14 6 -6 3 7 2 16 -1 19 -3 4 -6 -2 -5 -13z"/>
<path d="M4774 1916 c-3 -8 -4 -25 -2 -38 3 -17 5 -13 9 15 5 38 2 47 -7 23z"/>
<path d="M1436 1898 c-3 -13 -5 -36 -5 -53 1 -21 4 -15 10 20 8 52 6 72 -5 33z"/>
<path d="M1842 1900 c0 -14 2 -19 5 -12 2 6 2 18 0 25 -3 6 -5 1 -5 -13z"/>
<path d="M4442 1895 c0 -16 2 -22 5 -12 2 9 2 23 0 30 -3 6 -5 -1 -5 -18z"/>
<path d="M4542 1890 c0 -19 2 -27 5 -17 2 9 2 25 0 35 -3 9 -5 1 -5 -18z"/>
<path d="M1322 1890 c0 -14 2 -19 5 -12 2 6 2 18 0 25 -3 6 -5 1 -5 -13z"/>
<path d="M1341 1894 c0 -11 3 -14 6 -6 3 7 2 16 -1 19 -3 4 -6 -2 -5 -13z"/>
<path d="M1412 1890 c0 -14 2 -19 5 -12 2 6 2 18 0 25 -3 6 -5 1 -5 -13z"/>
<path d="M1721 1894 c0 -11 3 -14 6 -6 3 7 2 16 -1 19 -3 4 -6 -2 -5 -13z"/>
<path d="M4643 1870 c0 -25 2 -35 4 -22 2 12 2 32 0 45 -2 12 -4 2 -4 -23z"/>
<path d="M4721 1894 c0 -11 3 -14 6 -6 3 7 2 16 -1 19 -3 4 -6 -2 -5 -13z"/>
<path d="M1162 1870 c0 -19 2 -27 5 -17 2 9 2 25 0 35 -3 9 -5 1 -5 -18z"/>
<path d="M1226 1869 c-3 -17 -6 -75 -6 -129 0 -91 1 -98 21 -103 20 -5 21 -3
15 31 -3 20 -7 62 -8 92 -2 53 -2 52 -9 -20 -5 -63 -6 -56 -4 43 1 64 1 117 0
117 -1 0 -5 -14 -9 -31z"/>
<path d="M1582 1851 c-7 -29 -12 -62 -11 -74 0 -12 7 7 15 43 8 36 13 69 11
74 -2 5 -8 -15 -15 -43z"/>
<path d="M1742 1875 c0 -16 2 -22 5 -12 2 9 2 23 0 30 -3 6 -5 -1 -5 -18z"/>
<path d="M1252 1860 c0 -19 2 -27 5 -17 2 9 2 25 0 35 -3 9 -5 1 -5 -18z"/>
<path d="M1561 1875 c-1 -11 -4 -31 -6 -45 l-6 -25 11 25 c6 13 9 33 7 45 -4
19 -4 19 -6 0z"/>
<path d="M1102 1860 c0 -14 2 -19 5 -12 2 6 2 18 0 25 -3 6 -5 1 -5 -13z"/>
<path d="M1203 1840 c0 -25 2 -35 4 -22 2 12 2 32 0 45 -2 12 -4 2 -4 -23z"/>
<path d="M1362 1860 c0 -14 2 -19 5 -12 2 6 2 18 0 25 -3 6 -5 1 -5 -13z"/>
<path d="M1381 1845 c-2 -22 -4 -44 -6 -50 -1 -5 -3 -19 -5 -30 -2 -15 -4 -13
-10 10 -8 30 -8 30 -9 3 0 -14 2 -34 5 -43 6 -13 9 -14 16 -3 6 8 8 -29 5
-102 -4 -92 -3 -104 4 -60 5 30 8 113 6 185 -1 71 -4 112 -6 90z"/>
<path d="M1481 1864 c0 -11 3 -14 6 -6 3 7 2 16 -1 19 -3 4 -6 -2 -5 -13z"/>
<path d="M4462 1850 c0 -19 2 -27 5 -17 2 9 2 25 0 35 -3 9 -5 1 -5 -18z"/>
<path d="M4686 1811 c-3 -41 -4 -76 -2 -78 6 -6 19 123 14 139 -3 7 -8 -20
-12 -61z"/>
<path d="M1142 1850 c0 -14 2 -19 5 -12 2 6 2 18 0 25 -3 6 -5 1 -5 -13z"/>
<path d="M1271 1854 c0 -11 3 -14 6 -6 3 7 2 16 -1 19 -3 4 -6 -2 -5 -13z"/>
<path d="M1521 1807 c-6 -35 -10 -111 -9 -168 l1 -104 7 125 c4 69 11 144 15
168 4 23 5 42 2 42 -3 0 -10 -28 -16 -63z"/>
<path d="M4563 1825 c0 -27 2 -38 4 -22 2 15 2 37 0 50 -2 12 -4 0 -4 -28z"/>
<path d="M4792 1845 c0 -16 2 -22 5 -12 2 9 2 23 0 30 -3 6 -5 -1 -5 -18z"/>
<path d="M1336 1844 c-3 -9 -7 -48 -8 -87 l-2 -72 -6 85 -6 85 -2 -119 c-2
-107 0 -118 13 -100 13 17 14 16 9 -21 -4 -42 0 -39 10 8 4 15 11 25 16 22 6
-3 10 4 10 17 0 16 -3 19 -9 10 -14 -23 -19 5 -17 101 0 48 0 87 0 87 -1 0 -5
-7 -8 -16z"/>
<path d="M1406 1839 c-7 -33 -13 -330 -7 -323 5 5 19 335 14 343 -1 2 -4 -7
-7 -20z"/>
<path d="M1453 1803 c0 -34 4 -60 9 -57 10 6 10 -12 1 -45 -6 -23 -7 -24 -15
-5 -6 13 -7 8 -3 -16 3 -19 9 -36 13 -38 5 -1 7 -30 6 -65 l-3 -62 9 50 c4 28
8 95 8 150 -1 55 -4 87 -7 70 -4 -25 -6 -21 -12 25 l-6 55 0 -62z"/>
<path d="M1496 1814 c-3 -26 -5 -90 -4 -143 1 -92 1 -90 9 44 4 77 6 141 4
143 -1 1 -5 -18 -9 -44z"/>
<path d="M1661 1844 c0 -11 3 -14 6 -6 3 7 2 16 -1 19 -3 4 -6 -2 -5 -13z"/>
<path d="M1711 1844 c0 -11 3 -14 6 -6 3 7 2 16 -1 19 -3 4 -6 -2 -5 -13z"/>
<path d="M1294 1735 c0 -66 1 -92 3 -57 2 34 2 88 0 120 -2 31 -3 3 -3 -63z"/>
<path d="M4433 1815 c0 -22 2 -30 4 -17 2 12 2 30 0 40 -3 9 -5 -1 -4 -23z"/>
<path d="M4732 1789 c-7 -36 -12 -74 -11 -85 1 -10 7 15 15 56 8 41 12 80 10
85 -1 6 -8 -20 -14 -56z"/>
<path d="M1591 1760 c-7 -47 -11 -114 -9 -150 4 -65 4 -65 6 17 1 45 7 105 13
132 6 28 9 59 7 68 -2 10 -10 -20 -17 -67z"/>
<path d="M1624 1806 c-3 -21 -4 -39 -1 -42 2 -3 8 11 11 32 4 20 5 38 2 41 -2
3 -8 -11 -12 -31z"/>
<path d="M1682 1820 c0 -14 2 -19 5 -12 2 6 2 18 0 25 -3 6 -5 1 -5 -13z"/>
<path d="M1732 1820 c0 -14 2 -19 5 -12 2 6 2 18 0 25 -3 6 -5 1 -5 -13z"/>
<path d="M1772 1761 c-7 -46 -11 -85 -9 -88 7 -6 29 132 25 153 -2 10 -9 -20
-16 -65z"/>
<path d="M4202 1820 c0 -14 2 -19 5 -12 2 6 2 18 0 25 -3 6 -5 1 -5 -13z"/>
<path d="M4712 1815 c0 -16 2 -22 5 -12 2 9 2 23 0 30 -3 6 -5 -1 -5 -18z"/>
<path d="M4762 1820 c0 -14 2 -19 5 -12 2 6 2 18 0 25 -3 6 -5 1 -5 -13z"/>
<path d="M1267 1816 c-4 -10 -5 -21 -2 -24 9 -9 17 6 13 25 -3 17 -4 17 -11
-1z"/>
<path d="M4151 1814 c0 -11 3 -14 6 -6 3 7 2 16 -1 19 -3 4 -6 -2 -5 -13z"/>
<path d="M4252 1800 c0 -19 2 -27 5 -17 2 9 2 25 0 35 -3 9 -5 1 -5 -18z"/>
<path d="M4302 1810 c0 -14 2 -19 5 -12 2 6 2 18 0 25 -3 6 -5 1 -5 -13z"/>
<path d="M4381 1814 c0 -11 3 -14 6 -6 3 7 2 16 -1 19 -3 4 -6 -2 -5 -13z"/>
<path d="M4612 1810 c0 -14 2 -19 5 -12 2 6 2 18 0 25 -3 6 -5 1 -5 -13z"/>
<path d="M4662 1805 c0 -16 2 -22 5 -12 2 9 2 23 0 30 -3 6 -5 -1 -5 -18z"/>
<path d="M4805 1770 c-4 -34 -5 -63 -2 -66 2 -3 7 23 11 57 4 33 5 63 3 66 -3
2 -8 -23 -12 -57z"/>
<path d="M1133 1765 c0 -33 2 -45 4 -27 2 18 2 45 0 60 -2 15 -4 0 -4 -33z"/>
<path d="M1153 1755 c0 -38 2 -53 4 -32 2 20 2 52 0 70 -2 17 -4 1 -4 -38z"/>
<path d="M1645 1778 c-3 -24 -8 -56 -11 -73 -3 -24 -2 -26 5 -10 10 24 25 125
18 125 -3 0 -8 -19 -12 -42z"/>
<path d="M1696 1774 c-3 -26 -4 -49 -2 -52 3 -2 8 17 11 43 4 25 5 48 3 51 -3
2 -8 -17 -12 -42z"/>
<path d="M1802 1790 c0 -19 2 -27 5 -17 2 9 2 25 0 35 -3 9 -5 1 -5 -18z"/>
<path d="M4482 1795 c0 -16 2 -22 5 -12 2 9 2 23 0 30 -3 6 -5 -1 -5 -18z"/>
<path d="M4533 1785 c0 -22 2 -30 4 -17 2 12 2 30 0 40 -3 9 -5 -1 -4 -23z"/>
<path d="M4352 1780 c0 -19 2 -27 5 -17 2 9 2 25 0 35 -3 9 -5 1 -5 -18z"/>
<path d="M1173 1735 c0 -38 2 -53 4 -32 2 20 2 52 0 70 -2 17 -4 1 -4 -38z"/>
<path d="M1742 1724 c-7 -43 -17 -124 -22 -178 -6 -55 -15 -117 -21 -139 -6
-22 -15 -65 -20 -96 -32 -183 -39 -228 -39 -245 0 -48 11 2 35 147 14 86 32
182 40 214 8 31 15 77 15 101 0 25 7 92 16 149 8 58 14 109 12 115 -2 6 -9
-25 -16 -68z"/>
<path d="M4172 1775 c0 -16 2 -22 5 -12 2 9 2 23 0 30 -3 6 -5 -1 -5 -18z"/>
<path d="M4832 1775 c0 -16 2 -22 5 -12 2 9 2 23 0 30 -3 6 -5 -1 -5 -18z"/>
<path d="M1423 1665 c0 -94 2 -113 6 -70 4 33 4 92 0 130 -5 56 -6 44 -6 -60z"/>
<path d="M4273 1740 c0 -30 2 -43 4 -27 2 15 2 39 0 55 -2 15 -4 2 -4 -28z"/>
<path d="M4402 1750 c-1 -25 -4 -63 -7 -85 l-5 -40 11 40 c5 22 8 60 6 85 l-3
45 -2 -45z"/>
<path d="M4782 1760 c0 -19 2 -27 5 -17 2 9 2 25 0 35 -3 9 -5 1 -5 -18z"/>
<path d="M1267 1705 c3 -44 7 -82 9 -84 8 -9 2 115 -6 139 -5 15 -6 -7 -3 -55z"/>
<path d="M1543 1740 c0 -25 2 -35 4 -22 2 12 2 32 0 45 -2 12 -4 2 -4 -23z"/>
<path d="M4582 1750 c0 -19 2 -27 5 -17 2 9 2 25 0 35 -3 9 -5 1 -5 -18z"/>
<path d="M1190 1755 c0 -8 4 -15 10 -15 5 0 7 7 4 15 -4 8 -8 15 -10 15 -2 0
-4 -7 -4 -15z"/>
<path d="M1713 1720 c-6 -27 -7 -50 -3 -50 9 0 24 89 17 96 -2 3 -9 -18 -14
-46z"/>
<path d="M4500 1728 c-3 -26 -1 -43 3 -39 5 5 7 26 5 47 l-3 39 -5 -47z"/>
<path d="M4702 1740 c0 -14 2 -19 5 -12 2 6 2 18 0 25 -3 6 -5 1 -5 -13z"/>
<path d="M4752 1735 c0 -16 2 -22 5 -12 2 9 2 23 0 30 -3 6 -5 -1 -5 -18z"/>
<path d="M1612 1725 c0 -16 2 -22 5 -12 2 9 2 23 0 30 -3 6 -5 -1 -5 -18z"/>
<path d="M4186 1651 c-4 -57 -5 -105 -3 -108 7 -6 20 182 15 199 -3 7 -8 -34
-12 -91z"/>
<path d="M4552 1720 c0 -19 2 -27 5 -17 2 9 2 25 0 35 -3 9 -5 1 -5 -18z"/>
<path d="M4646 1691 c-4 -35 -5 -65 -2 -68 6 -7 19 103 14 119 -3 7 -8 -16
-12 -51z"/>
<path d="M1564 1650 c0 -52 1 -74 3 -47 2 26 2 68 0 95 -2 26 -3 4 -3 -48z"/>
<path d="M4349 1723 c0 -10 -4 -42 -8 -71 -4 -29 -4 -49 0 -45 9 10 23 133 15
133 -3 0 -6 -8 -7 -17z"/>
<path d="M1198 1690 c2 -22 6 -40 8 -40 2 0 4 18 4 40 0 22 -3 40 -8 40 -4 0
-6 -18 -4 -40z"/>
<path d="M1662 1710 c0 -14 2 -19 5 -12 2 6 2 18 0 25 -3 6 -5 1 -5 -13z"/>
<path d="M4313 1648 c-8 -79 -8 -97 1 -87 6 6 19 169 13 169 -3 0 -9 -37 -14
-82z"/>
<path d="M4373 1695 c0 -22 2 -30 4 -17 2 12 2 30 0 40 -3 9 -5 -1 -4 -23z"/>
<path d="M4436 1611 c-10 -67 -15 -125 -12 -128 3 -4 6 -1 6 5 0 6 7 59 16
117 8 58 14 111 12 117 -2 6 -12 -44 -22 -111z"/>
<path d="M4522 1704 c-1 -17 -4 -47 -7 -65 l-5 -34 11 34 c5 18 8 47 6 65 l-4
31 -1 -31z"/>
<path d="M4822 1710 c0 -14 2 -19 5 -12 2 6 2 18 0 25 -3 6 -5 1 -5 -13z"/>
<path d="M4615 1665 c-3 -31 -5 -59 -2 -61 3 -3 8 20 12 51 3 31 5 59 2 61 -3
3 -8 -20 -12 -51z"/>
<path d="M4667 1661 c-4 -35 -5 -66 -3 -68 6 -7 19 103 14 119 -3 7 -8 -16
-11 -51z"/>
<path d="M4756 1601 c-10 -67 -16 -124 -13 -127 6 -7 40 209 36 231 -2 10 -12
-37 -23 -104z"/>
<path d="M1678 1670 c-2 -22 0 -40 4 -40 5 0 8 18 8 40 0 22 -2 40 -4 40 -2 0
-6 -18 -8 -40z"/>
<path d="M4243 1675 c0 -22 2 -30 4 -17 2 12 2 30 0 40 -3 9 -5 -1 -4 -23z"/>
<path d="M4586 1630 c-10 -45 -15 -84 -12 -87 5 -6 8 4 26 100 18 90 5 78 -14
-13z"/>
<path d="M1805 1623 c-4 -43 -11 -103 -15 -133 -19 -116 -20 -138 -5 -80 16
62 40 278 32 286 -3 3 -8 -30 -12 -73z"/>
<path d="M1913 1655 c0 -27 2 -38 4 -22 2 15 2 37 0 50 -2 12 -4 0 -4 -28z"/>
<path d="M4422 1680 c0 -14 2 -19 5 -12 2 6 2 18 0 25 -3 6 -5 1 -5 -13z"/>
<path d="M4560 1626 c-7 -40 -10 -80 -8 -87 3 -8 10 24 17 69 15 105 8 119 -9
18z"/>
<path d="M4842 1680 c0 -14 2 -19 5 -12 2 6 2 18 0 25 -3 6 -5 1 -5 -13z"/>
<path d="M4465 1648 c-3 -24 -9 -52 -11 -63 -4 -16 -3 -17 5 -5 10 17 26 110
18 110 -3 0 -8 -19 -12 -42z"/>
<path d="M4792 1665 c0 -16 2 -22 5 -12 2 9 2 23 0 30 -3 6 -5 -1 -5 -18z"/>
<path d="M1652 1625 c-1 -33 -4 -85 -7 -115 l-4 -55 10 49 c5 26 8 78 6 115
l-3 66 -2 -60z"/>
<path d="M2110 1665 c0 -8 2 -15 4 -15 2 0 6 7 10 15 3 8 1 15 -4 15 -6 0 -10
-7 -10 -15z"/>
<path d="M4292 1655 c0 -16 2 -22 5 -12 2 9 2 23 0 30 -3 6 -5 -1 -5 -18z"/>
<path d="M4538 1650 c-3 -16 -1 -30 4 -30 4 0 8 14 8 30 0 17 -2 30 -4 30 -2
0 -6 -13 -8 -30z"/>
<path d="M4716 1665 c-3 -8 -1 -15 4 -15 6 0 10 7 10 15 0 8 -2 15 -4 15 -2 0
-6 -7 -10 -15z"/>
<path d="M4742 1655 c0 -16 2 -22 5 -12 2 9 2 23 0 30 -3 6 -5 -1 -5 -18z"/>
<path d="M1630 1641 c0 -15 -3 -57 -6 -92 -4 -35 -4 -61 0 -57 9 8 21 178 12
178 -3 0 -6 -13 -6 -29z"/>
<path d="M1782 1640 c0 -19 2 -27 5 -17 2 9 2 25 0 35 -3 9 -5 1 -5 -18z"/>
<path d="M4485 1620 c-4 -28 -5 -53 -2 -56 2 -3 7 19 11 47 4 28 5 53 3 56 -3
2 -8 -19 -12 -47z"/>
<path d="M1703 1605 c0 -33 2 -45 4 -27 2 18 2 45 0 60 -2 15 -4 0 -4 -33z"/>
<path d="M1956 1578 c-4 -46 -14 -116 -22 -156 -8 -41 -13 -79 -11 -85 2 -7
11 29 21 78 18 96 32 245 24 245 -3 0 -9 -37 -12 -82z"/>
<path d="M1603 1585 c0 -38 2 -53 4 -32 2 20 2 52 0 70 -2 17 -4 1 -4 -38z"/>
<path d="M4255 1587 c-4 -35 -5 -73 -3 -83 2 -10 8 16 12 59 4 43 6 81 3 84
-3 2 -8 -24 -12 -60z"/>
<path d="M4837 1643 c-4 -3 -7 -18 -6 -32 1 -26 1 -25 10 3 9 31 7 41 -4 29z"/>
<path d="M1932 1599 c-1 -25 -4 -68 -7 -95 l-4 -49 10 49 c5 27 8 70 6 95 l-3
46 -2 -46z"/>
<path d="M2063 1590 c0 -30 2 -43 4 -27 2 15 2 39 0 55 -2 15 -4 2 -4 -28z"/>
<path d="M2113 1585 c0 -33 2 -45 4 -27 2 18 2 45 0 60 -2 15 -4 0 -4 -33z"/>
<path d="M2213 1575 c0 -38 2 -53 4 -32 2 20 2 52 0 70 -2 17 -4 1 -4 -38z"/>
<path d="M4356 1579 c-4 -33 -5 -63 -3 -66 3 -2 8 23 12 57 4 34 5 63 2 66 -2
3 -7 -23 -11 -57z"/>
<path d="M4686 1625 c-3 -9 -8 -42 -11 -73 -4 -57 -4 -57 9 13 14 69 14 91 2
60z"/>
<path d="M4706 1600 c-5 -25 -10 -52 -11 -60 -1 -8 -5 -44 -8 -80 -5 -47 -1
-35 14 45 10 61 18 117 16 125 -2 8 -7 -5 -11 -30z"/>
<path d="M4805 1603 c-3 -21 -8 -47 -10 -57 -2 -11 0 -15 5 -10 10 11 25 104
17 104 -4 0 -9 -17 -12 -37z"/>
<path d="M1874 1551 c-5 -44 -6 -77 -3 -75 8 5 23 143 17 149 -3 3 -9 -31 -14
-74z"/>
<path d="M4405 1577 c-4 -31 -5 -62 -3 -69 3 -7 8 16 12 51 4 35 5 65 2 68 -2
3 -7 -20 -11 -50z"/>
<path d="M1670 1565 c0 -32 2 -56 4 -54 8 8 10 98 3 105 -4 4 -7 -19 -7 -51z"/>
<path d="M2461 1530 c0 -51 2 -90 5 -87 7 6 6 168 0 174 -3 3 -5 -36 -5 -87z"/>
<path d="M4282 1590 c-1 -19 -4 -53 -7 -75 l-5 -40 11 40 c5 22 8 56 6 75 l-4
35 -1 -35z"/>
<path d="M1443 1565 c0 -27 2 -38 4 -22 2 15 2 37 0 50 -2 12 -4 0 -4 -28z"/>
<path d="M1751 1605 c-1 -5 -4 -37 -7 -70 -5 -51 -22 -151 -40 -230 -4 -16 -3
-17 4 -5 16 26 54 235 49 276 -2 22 -5 35 -6 29z"/>
<path d="M2132 1553 c-1 -32 -4 -71 -7 -88 -4 -23 -3 -25 3 -10 12 27 23 155
14 155 -4 0 -9 -26 -10 -57z"/>
<path d="M2292 1590 c0 -14 2 -19 5 -12 2 6 2 18 0 25 -3 6 -5 1 -5 -13z"/>
<path d="M4212 1590 c0 -14 2 -19 5 -12 2 6 2 18 0 25 -3 6 -5 1 -5 -13z"/>
<path d="M4526 1573 c-12 -79 -18 -158 -13 -153 8 7 29 181 23 187 -2 2 -7
-13 -10 -34z"/>
<path d="M4620 1527 c-7 -46 -11 -90 -8 -98 2 -7 10 28 17 79 16 117 9 132 -9
19z"/>
<path d="M4732 1590 c0 -14 2 -19 5 -12 2 6 2 18 0 25 -3 6 -5 1 -5 -13z"/>
<path d="M4780 1599 c-1 -8 -5 -33 -9 -56 -5 -23 -5 -40 0 -37 10 6 23 93 15
101 -3 4 -6 0 -6 -8z"/>
<path d="M1352 1575 c0 -16 2 -22 5 -12 2 9 2 23 0 30 -3 6 -5 -1 -5 -18z"/>
<path d="M1526 1534 c-4 -37 -5 -69 -2 -71 2 -3 7 25 11 62 4 36 5 68 3 71 -3
2 -8 -25 -12 -62z"/>
<path d="M1770 1543 c-3 -34 -1 -58 3 -54 5 4 7 32 5 62 l-3 54 -5 -62z"/>
<path d="M1853 1555 c0 -27 2 -38 4 -22 2 15 2 37 0 50 -2 12 -4 0 -4 -28z"/>
<path d="M2337 1593 c-4 -3 -7 -11 -7 -17 0 -6 5 -5 12 2 6 6 9 14 7 17 -3 3
-9 2 -12 -2z"/>
<path d="M4232 1580 c0 -14 2 -19 5 -12 2 6 2 18 0 25 -3 6 -5 1 -5 -13z"/>
<path d="M4375 1547 c-4 -30 -5 -63 -3 -73 2 -11 8 12 12 49 4 38 5 71 3 74
-3 2 -8 -20 -12 -50z"/>
<path d="M2232 1520 l0 -75 9 59 c5 35 5 65 -1 75 -6 11 -9 -7 -8 -59z"/>
<path d="M2388 1555 c-4 -22 -7 -62 -7 -90 l1 -50 9 45 c5 25 8 65 7 90 l-3
45 -7 -40z"/>
<path d="M4328 1555 c-2 -19 0 -35 4 -35 4 0 8 16 8 35 0 19 -2 35 -4 35 -2 0
-6 -16 -8 -35z"/>
<path d="M1893 1495 c-6 -49 -10 -91 -8 -93 7 -8 26 110 23 145 -2 27 -6 12
-15 -52z"/>
<path d="M2512 1562 c7 -24 -7 -168 -22 -228 -14 -60 -40 -252 -39 -288 1 -17
8 12 15 64 8 52 26 161 39 241 28 162 31 214 13 225 -7 5 -9 0 -6 -14z"/>
<path d="M4495 1527 c-4 -30 -5 -63 -3 -73 2 -11 8 12 12 49 4 38 5 71 3 74
-3 2 -8 -20 -12 -50z"/>
<path d="M4602 1555 c0 -16 2 -22 5 -12 2 9 2 23 0 30 -3 6 -5 -1 -5 -18z"/>
<path d="M4648 1545 c-4 -22 -9 -69 -12 -105 -5 -57 -3 -53 10 25 8 50 13 97
11 105 -2 8 -6 -3 -9 -25z"/>
<path d="M2083 1525 c0 -27 2 -38 4 -22 2 15 2 37 0 50 -2 12 -4 0 -4 -28z"/>
<path d="M1483 1525 c0 -22 2 -30 4 -17 2 12 2 30 0 40 -3 9 -5 -1 -4 -23z"/>
<path d="M4196 1493 c-14 -158 -18 -228 -12 -222 8 7 30 279 23 285 -2 3 -7
-26 -11 -63z"/>
<path d="M4452 1540 c0 -14 2 -19 5 -12 2 6 2 18 0 25 -3 6 -5 1 -5 -13z"/>
<path d="M2183 1510 c0 -25 2 -35 4 -22 2 12 2 32 0 45 -2 12 -4 2 -4 -23z"/>
<path d="M4302 1525 c0 -16 2 -22 5 -12 2 9 2 23 0 30 -3 6 -5 -1 -5 -18z"/>
<path d="M4472 1525 c0 -16 2 -22 5 -12 2 9 2 23 0 30 -3 6 -5 -1 -5 -18z"/>
<path d="M4718 1525 c-3 -14 -1 -25 3 -25 5 0 9 11 9 25 0 14 -2 25 -4 25 -2
0 -6 -11 -8 -25z"/>
<path d="M1551 1524 c0 -11 3 -14 6 -6 3 7 2 16 -1 19 -3 4 -6 -2 -5 -13z"/>
<path d="M1996 1479 c-4 -33 -5 -63 -3 -66 3 -2 8 23 12 57 4 34 5 63 2 66 -2
3 -7 -23 -11 -57z"/>
<path d="M2337 1533 c-4 -3 -7 -25 -7 -47 0 -23 -4 -56 -9 -74 -5 -17 -6 -32
-1 -32 5 0 11 26 15 58 3 31 8 67 11 80 5 23 2 27 -9 15z"/>
<path d="M1501 1514 c0 -11 3 -14 6 -6 3 7 2 16 -1 19 -3 4 -6 -2 -5 -13z"/>
<path d="M1691 1507 c0 -16 -12 -78 -26 -139 -14 -61 -25 -122 -24 -137 0 -14
14 37 30 114 16 77 28 151 26 165 -4 23 -4 23 -6 -3z"/>
<path d="M4173 1490 c0 -25 2 -35 4 -22 2 12 2 32 0 45 -2 12 -4 2 -4 -23z"/>
<path d="M4572 1510 c0 -14 2 -19 5 -12 2 6 2 18 0 25 -3 6 -5 1 -5 -13z"/>
<path d="M1412 1490 c0 -19 2 -27 5 -17 2 9 2 25 0 35 -3 9 -5 1 -5 -18z"/>
<path d="M1562 1459 c-6 -34 -10 -65 -8 -67 6 -5 28 107 24 120 -2 6 -9 -18
-16 -53z"/>
<path d="M2046 1471 c-4 -29 -5 -55 -2 -58 6 -7 19 83 14 99 -3 7 -8 -11 -12
-41z"/>
<path d="M2102 1490 c0 -19 2 -27 5 -17 2 9 2 25 0 35 -3 9 -5 1 -5 -18z"/>
<path d="M2273 1435 c-7 -49 -11 -91 -9 -93 7 -6 28 135 24 160 -2 13 -8 -17
-15 -67z"/>
<path d="M4223 1480 c0 -25 2 -35 4 -22 2 12 2 32 0 45 -2 12 -4 2 -4 -23z"/>
<path d="M4539 1488 c-3 -22 -1 -34 4 -29 5 5 7 21 5 37 -3 27 -4 26 -9 -8z"/>
<path d="M4590 1495 c0 -14 2 -25 4 -25 2 0 6 11 8 25 3 14 1 25 -3 25 -5 0
-9 -11 -9 -25z"/>
<path d="M1432 1485 c0 -16 2 -22 5 -12 2 9 2 23 0 30 -3 6 -5 -1 -5 -18z"/>
<path d="M1452 1485 c0 -16 2 -22 5 -12 2 9 2 23 0 30 -3 6 -5 -1 -5 -18z"/>
<path d="M4323 1470 c0 -25 2 -35 4 -22 2 12 2 32 0 45 -2 12 -4 2 -4 -23z"/>
<path d="M4443 1460 c0 -30 2 -43 4 -27 2 15 2 39 0 55 -2 15 -4 2 -4 -28z"/>
<path d="M1586 1461 c-4 -24 -5 -46 -2 -48 7 -7 19 63 14 79 -3 7 -8 -7 -12
-31z"/>
<path d="M3874 1401 c-5 -55 -7 -110 -3 -123 3 -12 9 30 13 96 4 65 5 120 3
122 -2 3 -8 -40 -13 -95z"/>
<path d="M1496 1475 c-3 -9 -6 -26 -5 -38 1 -16 4 -12 10 12 10 34 6 55 -5 26z"/>
<path d="M1542 1465 c0 -16 2 -22 5 -12 2 9 2 23 0 30 -3 6 -5 -1 -5 -18z"/>
<path d="M1662 1465 c0 -16 2 -22 5 -12 2 9 2 23 0 30 -3 6 -5 -1 -5 -18z"/>
<path d="M1832 1430 c-7 -34 -11 -64 -8 -67 6 -6 29 104 24 118 -2 6 -9 -17
-16 -51z"/>
<path d="M2021 1470 c0 -14 -4 -36 -7 -50 -5 -22 -4 -23 6 -7 6 9 9 32 7 50
-3 25 -4 26 -6 7z"/>
<path d="M2152 1465 c0 -16 2 -22 5 -12 2 9 2 23 0 30 -3 6 -5 -1 -5 -18z"/>
<path d="M2202 1474 c-1 -12 -4 -37 -7 -55 -5 -31 -5 -32 5 -9 6 13 9 38 7 55
-2 18 -4 21 -5 9z"/>
<path d="M4006 1413 c-3 -42 -6 -127 -6 -190 0 -69 -4 -113 -10 -113 -5 0 -10
14 -10 32 0 17 -2 29 -5 26 -3 -3 -6 -51 -6 -107 0 -55 -4 -101 -9 -101 -4 0
-6 98 -3 218 3 119 3 215 1 212 -4 -4 -18 -346 -18 -454 0 -16 -3 -27 -6 -23
-4 3 -7 88 -7 189 0 180 0 181 -7 63 -10 -157 -10 -374 -1 -318 8 50 20 67 23
32 0 -13 4 -1 8 26 l7 50 1 -59 c3 -101 17 -51 23 82 l5 127 2 -129 c1 -71 5
-127 8 -123 3 3 5 49 5 101 -1 58 3 96 9 96 6 0 10 -37 10 -92 0 -151 7 -95
13 102 4 141 3 164 -4 96 -5 -49 -12 -92 -15 -95 -4 -3 -4 92 -1 212 3 119 4
217 3 217 -2 0 -6 -34 -10 -77z"/>
<path d="M4137 1416 c-4 -43 -6 -115 -6 -160 2 -67 3 -56 11 59 9 156 6 223
-5 101z"/>
<path d="M4343 1430 c0 -36 2 -50 4 -32 2 17 2 47 0 65 -2 17 -4 3 -4 -33z"/>
<path d="M4391 1474 c0 -11 3 -14 6 -6 3 7 2 16 -1 19 -3 4 -6 -2 -5 -13z"/>
<path d="M4662 1460 c0 -19 2 -27 5 -17 2 9 2 25 0 35 -3 9 -5 1 -5 -18z"/>
<path d="M4712 1465 c0 -16 2 -22 5 -12 2 9 2 23 0 30 -3 6 -5 -1 -5 -18z"/>
<path d="M1616 1469 c-15 -47 -36 -152 -32 -156 3 -3 8 8 12 23 3 16 12 54 20
84 7 30 11 56 9 59 -3 2 -6 -2 -9 -10z"/>
<path d="M4460 1419 c0 -54 -2 -60 -15 -49 -13 11 -15 5 -14 -41 0 -30 4 -63
9 -74 5 -12 6 3 3 38 -5 48 -3 57 11 57 13 0 16 11 16 65 0 36 -2 65 -5 65 -3
0 -5 -28 -5 -61z"/>
<path d="M4557 1451 c-4 -18 -7 -48 -6 -65 1 -26 3 -24 10 14 5 25 8 54 6 65
-2 14 -5 9 -10 -14z"/>
<path d="M1376 1429 c-4 -23 -5 -44 -2 -46 2 -2 7 14 11 37 4 23 5 43 2 46 -2
3 -7 -14 -11 -37z"/>
<path d="M1465 1440 c-4 -17 -5 -34 -2 -36 3 -3 8 9 12 26 4 17 5 34 2 36 -3
3 -8 -9 -12 -26z"/>
<path d="M1812 1450 c0 -14 2 -19 5 -12 2 6 2 18 0 25 -3 6 -5 1 -5 -13z"/>
<path d="M2056 1384 c-9 -48 -15 -88 -13 -91 2 -2 12 35 22 82 10 47 16 87 13
90 -3 3 -12 -34 -22 -81z"/>
<path d="M3637 1426 c-4 -27 -6 -70 -6 -95 1 -35 4 -26 10 34 10 90 7 136 -4
61z"/>
<path d="M3769 1458 c-4 -64 -24 -664 -22 -667 9 -13 12 28 17 259 4 140 9
292 12 338 3 45 3 82 0 82 -3 0 -6 -6 -7 -12z"/>
<path d="M4241 1454 c0 -11 3 -14 6 -6 3 7 2 16 -1 19 -3 4 -6 -2 -5 -13z"/>
<path d="M1761 1444 c0 -11 3 -14 6 -6 3 7 2 16 -1 19 -3 4 -6 -2 -5 -13z"/>
<path d="M1862 1435 c0 -16 2 -22 5 -12 2 9 2 23 0 30 -3 6 -5 -1 -5 -18z"/>
<path d="M3931 1444 c0 -11 3 -14 6 -6 3 7 2 16 -1 19 -3 4 -6 -2 -5 -13z"/>
<path d="M4113 1395 c0 -38 2 -53 4 -32 2 20 2 52 0 70 -2 17 -4 1 -4 -38z"/>
<path d="M4414 1446 c-3 -7 -4 -42 -2 -77 l3 -64 5 78 c5 77 4 89 -6 63z"/>
<path d="M1912 1430 c0 -14 2 -19 5 -12 2 6 2 18 0 25 -3 6 -5 1 -5 -13z"/>
<path d="M2152 1340 c-25 -132 -62 -375 -61 -405 1 -34 16 28 23 95 8 82 34
240 52 322 9 37 14 76 12 85 -2 10 -14 -34 -26 -97z"/>
<path d="M2431 1434 c0 -11 3 -14 6 -6 3 7 2 16 -1 19 -3 4 -6 -2 -5 -13z"/>
<path d="M3981 1393 c1 -62 6 -56 11 15 2 23 0 42 -4 42 -5 0 -7 -26 -7 -57z"/>
<path d="M4060 1412 c0 -22 -3 -61 -6 -88 -4 -27 -4 -46 0 -42 4 3 10 30 12
60 3 29 7 63 9 75 3 12 1 25 -5 28 -6 4 -10 -9 -10 -33z"/>
<path d="M4392 1425 c0 -16 2 -22 5 -12 2 9 2 23 0 30 -3 6 -5 -1 -5 -18z"/>
<path d="M4583 1415 c0 -22 2 -30 4 -17 2 12 2 30 0 40 -3 9 -5 -1 -4 -23z"/>
<path d="M1436 1404 c-4 -20 -5 -38 -3 -40 3 -3 8 11 11 32 4 20 5 38 3 40 -3
3 -8 -11 -11 -32z"/>
<path d="M2221 1424 c0 -11 3 -14 6 -6 3 7 2 16 -1 19 -3 4 -6 -2 -5 -13z"/>
<path d="M2291 1387 c-7 -31 -11 -63 -8 -70 2 -6 10 14 16 46 7 31 11 63 8 70
-2 6 -10 -14 -16 -46z"/>
<path d="M2561 1424 c0 -11 3 -14 6 -6 3 7 2 16 -1 19 -3 4 -6 -2 -5 -13z"/>
<path d="M3606 1394 c-3 -26 -5 -81 -5 -123 2 -67 3 -62 10 44 8 124 6 159 -5
79z"/>
<path d="M3903 1385 c0 -33 2 -45 4 -27 2 18 2 45 0 60 -2 15 -4 0 -4 -33z"/>
<path d="M1528 1407 c-3 -19 -2 -25 4 -19 6 6 8 18 6 28 -3 14 -5 12 -10 -9z"/>
<path d="M1646 1394 c-4 -20 -5 -38 -3 -40 3 -3 8 11 11 32 4 20 5 38 3 40 -3
3 -8 -11 -11 -32z"/>
<path d="M1956 1399 c-8 -42 0 -50 9 -9 4 17 5 34 2 36 -2 3 -7 -10 -11 -27z"/>
<path d="M3743 1385 c0 -27 2 -38 4 -22 2 15 2 37 0 50 -2 12 -4 0 -4 -28z"/>
<path d="M4216 1413 c-6 -14 -5 -15 5 -6 7 7 10 15 7 18 -3 3 -9 -2 -12 -12z"/>
<path d="M4242 1410 c0 -14 2 -19 5 -12 2 6 2 18 0 25 -3 6 -5 1 -5 -13z"/>
<path d="M4363 1360 c0 -41 2 -58 4 -37 2 20 2 54 0 75 -2 20 -4 3 -4 -38z"/>
<path d="M4533 1385 c0 -27 2 -38 4 -22 2 15 2 37 0 50 -2 12 -4 0 -4 -28z"/>
<path d="M1796 1384 c-4 -20 -5 -38 -3 -40 3 -3 8 11 11 32 4 20 5 38 3 40 -3
3 -8 -11 -11 -32z"/>
<path d="M2076 1348 c-34 -161 -67 -383 -65 -438 1 -14 14 63 30 170 15 107
35 226 44 263 9 38 14 71 12 74 -3 2 -12 -28 -21 -69z"/>
<path d="M2117 1413 c-6 -9 -30 -136 -47 -238 -6 -38 -13 -81 -16 -95 -3 -18
-2 -21 5 -10 4 8 16 63 25 122 9 59 22 135 30 168 13 56 14 71 3 53z"/>
<path d="M2141 1404 c0 -11 3 -14 6 -6 3 7 2 16 -1 19 -3 4 -6 -2 -5 -13z"/>
<path d="M2448 1400 c-4 -14 -9 -50 -12 -80 l-6 -55 15 65 c15 62 17 124 3 70z"/>
<path d="M2684 1394 c-3 -16 -10 -45 -14 -64 -18 -76 -54 -389 -47 -397 9 -8
14 24 28 172 7 72 20 171 30 220 9 50 15 92 13 94 -1 2 -6 -10 -10 -25z"/>
<path d="M3927 1385 c-4 -22 -6 -53 -6 -70 1 -16 5 -3 10 30 10 67 6 102 -4
40z"/>
<path d="M4158 1255 c-4 -93 -10 -193 -14 -222 -3 -31 -1 -59 5 -70 9 -15 10
-12 6 17 -3 19 -1 51 4 70 8 32 9 30 11 -30 3 -59 3 -61 10 -25 6 39 6 39 12
10 l5 -30 2 30 c1 17 6 37 12 45 9 13 10 13 8 0 -1 -8 0 -24 1 -35 2 -15 4
-12 10 10 6 25 8 26 9 7 1 -30 21 -18 21 13 0 13 4 26 9 29 4 3 6 -6 3 -21 -3
-18 -1 -24 7 -19 6 4 11 15 12 24 0 12 2 13 6 4 4 -10 11 -8 29 9 22 20 24 30
22 103 l-1 81 -7 -60 -7 -60 -3 50 -3 50 -6 -52 c-7 -59 -20 -81 -22 -37 -1
24 -3 21 -12 -16 l-11 -45 -5 35 -4 35 -12 -45 c-12 -43 -12 -41 -9 45 l3 90
-9 -68 c-10 -77 -20 -99 -21 -46 l-1 34 -12 -40 c-12 -38 -12 -36 -9 40 4 93
-2 89 -14 -10 -7 -63 -8 -53 -13 100 l-5 170 -7 -170z m169 -167 c-3 -8 -6 -5
-6 6 -1 11 2 17 5 13 3 -3 4 -12 1 -19z"/>
<path d="M1481 1394 c0 -11 3 -14 6 -6 3 7 2 16 -1 19 -3 4 -6 -2 -5 -13z"/>
<path d="M2238 1383 c-3 -15 -15 -80 -27 -143 -26 -142 -40 -270 -29 -270 4 0
8 16 8 35 0 37 19 165 46 308 9 48 14 90 12 93 -3 3 -8 -8 -10 -23z"/>
<path d="M2411 1334 c-7 -42 -11 -78 -8 -80 2 -2 10 30 17 71 7 41 11 77 8 80
-2 2 -10 -30 -17 -71z"/>
<path d="M2570 1358 c-25 -116 -49 -331 -36 -317 2 2 9 49 16 104 6 55 18 136
26 179 16 89 12 116 -6 34z"/>
<path d="M1501 1384 c0 -11 3 -14 6 -6 3 7 2 16 -1 19 -3 4 -6 -2 -5 -13z"/>
<path d="M1621 1384 c0 -11 3 -14 6 -6 3 7 2 16 -1 19 -3 4 -6 -2 -5 -13z"/>
<path d="M1850 1398 c0 -2 -11 -61 -25 -129 -14 -68 -24 -137 -24 -154 1 -27
2 -25 9 10 31 148 51 268 46 273 -3 3 -6 3 -6 0z"/>
<path d="M1902 1380 c0 -14 2 -19 5 -12 2 6 2 18 0 25 -3 6 -5 1 -5 -13z"/>
<path d="M1971 1347 c-7 -28 -19 -90 -27 -137 -8 -47 -17 -96 -20 -110 -3 -15
-2 -21 4 -15 5 6 14 44 21 85 7 41 19 108 28 148 17 84 13 109 -6 29z"/>
<path d="M2198 1319 c-8 -44 -12 -82 -8 -84 7 -4 34 154 28 161 -3 2 -11 -32
-20 -77z"/>
<path d="M2357 1325 c-17 -77 -21 -113 -12 -103 8 7 38 169 32 174 -2 2 -11
-30 -20 -71z"/>
<path d="M2541 1329 c-7 -38 -11 -73 -8 -75 3 -3 10 27 17 66 7 39 10 73 8 76
-3 2 -10 -28 -17 -67z"/>
<path d="M3553 1335 c0 -38 2 -53 4 -32 2 20 2 52 0 70 -2 17 -4 1 -4 -38z"/>
<path d="M4286 1343 c-4 -32 -3 -78 2 -103 7 -38 8 -29 9 58 1 56 0 102 -2
102 -2 0 -6 -26 -9 -57z"/>
<path d="M4310 1389 c0 -5 5 -7 10 -4 6 3 10 8 10 11 0 2 -4 4 -10 4 -5 0 -10
-5 -10 -11z"/>
<path d="M4651 1384 c0 -11 3 -14 6 -6 3 7 2 16 -1 19 -3 4 -6 -2 -5 -13z"/>
<path d="M1565 1354 c-4 -22 -13 -69 -21 -105 -7 -37 -15 -97 -18 -135 l-5
-69 13 85 c8 47 21 123 31 168 9 46 14 86 11 89 -2 3 -8 -12 -11 -33z"/>
<path d="M1736 1349 c-4 -23 -5 -44 -2 -46 2 -2 7 14 11 37 4 23 5 43 2 46 -2
3 -7 -14 -11 -37z"/>
<path d="M1861 1322 c-35 -187 -40 -223 -45 -292 l-5 -75 14 95 c8 52 24 148
36 213 12 65 19 120 17 122 -2 3 -10 -26 -17 -63z"/>
<path d="M2031 1374 c0 -11 3 -14 6 -6 3 7 2 16 -1 19 -3 4 -6 -2 -5 -13z"/>
<path d="M1341 1364 c0 -11 3 -14 6 -6 3 7 2 16 -1 19 -3 4 -6 -2 -5 -13z"/>
<path d="M1451 1364 c0 -11 3 -14 6 -6 3 7 2 16 -1 19 -3 4 -6 -2 -5 -13z"/>
<path d="M3712 1350 c0 -19 2 -27 5 -17 2 9 2 25 0 35 -3 9 -5 1 -5 -18z"/>
<path d="M4483 1330 c0 -30 2 -43 4 -27 2 15 2 39 0 55 -2 15 -4 2 -4 -28z"/>
<path d="M1361 1354 c0 -11 3 -14 6 -6 3 7 2 16 -1 19 -3 4 -6 -2 -5 -13z"/>
<path d="M1467 1341 c-4 -18 -7 -43 -6 -55 1 -11 5 -1 10 24 5 25 7 49 6 55
-2 5 -7 -5 -10 -24z"/>
<path d="M1541 1354 c0 -11 3 -14 6 -6 3 7 2 16 -1 19 -3 4 -6 -2 -5 -13z"/>
<path d="M2167 1283 c-24 -128 -40 -250 -35 -265 3 -7 8 16 12 52 4 36 16 116
27 179 11 62 18 115 16 117 -2 3 -11 -35 -20 -83z"/>
<path d="M2312 1350 c0 -14 2 -19 5 -12 2 6 2 18 0 25 -3 6 -5 1 -5 -13z"/>
<path d="M2596 1353 c-10 -32 -34 -216 -40 -298 -4 -66 -3 -71 4 -30 5 28 14
97 20 154 6 58 15 123 20 145 9 41 6 62 -4 29z"/>
<path d="M2626 1359 c-12 -32 -26 -106 -26 -138 0 -52 9 -32 16 35 4 32 11 70
16 83 5 13 6 26 4 29 -3 3 -8 -1 -10 -9z"/>
<path d="M2651 1354 c0 -11 3 -14 6 -6 3 7 2 16 -1 19 -3 4 -6 -2 -5 -13z"/>
<path d="M2691 1308 c-17 -102 -33 -254 -29 -274 3 -11 8 13 12 51 4 39 14
117 22 174 16 114 13 149 -5 49z"/>
<path d="M4083 1295 c0 -44 2 -61 4 -37 2 23 2 59 0 80 -2 20 -4 1 -4 -43z"/>
<path d="M4213 1320 c0 -30 2 -43 4 -27 2 15 2 39 0 55 -2 15 -4 2 -4 -28z"/>
<path d="M4263 1300 c0 -41 2 -58 4 -37 2 20 2 54 0 75 -2 20 -4 3 -4 -38z"/>
<path d="M4313 1305 c0 -38 2 -53 4 -32 2 20 2 52 0 70 -2 17 -4 1 -4 -38z"/>
<path d="M4502 1350 c0 -14 2 -19 5 -12 2 6 2 18 0 25 -3 6 -5 1 -5 -13z"/>
<path d="M1492 1340 c0 -14 2 -19 5 -12 2 6 2 18 0 25 -3 6 -5 1 -5 -13z"/>
<path d="M1612 1340 c0 -14 2 -19 5 -12 2 6 2 18 0 25 -3 6 -5 1 -5 -13z"/>
<path d="M3683 1300 c0 -36 2 -50 4 -32 2 17 2 47 0 65 -2 17 -4 3 -4 -33z"/>
<path d="M1381 1334 c0 -11 3 -14 6 -6 3 7 2 16 -1 19 -3 4 -6 -2 -5 -13z"/>
<path d="M1792 1227 c-27 -156 -36 -234 -26 -224 4 4 13 51 20 105 7 53 18
128 24 165 7 38 10 70 8 73 -3 2 -14 -51 -26 -119z"/>
<path d="M1892 1330 c0 -14 2 -19 5 -12 2 6 2 18 0 25 -3 6 -5 1 -5 -13z"/>
<path d="M2017 1323 c-18 -103 -46 -288 -52 -338 -3 -33 -8 -68 -11 -77 -3
-10 -1 -18 5 -18 6 0 11 14 11 31 0 33 11 112 41 297 12 68 19 126 16 128 -2
3 -7 -8 -10 -23z"/>
<path d="M4551 1334 c0 -11 3 -14 6 -6 3 7 2 16 -1 19 -3 4 -6 -2 -5 -13z"/>
<path d="M4601 1334 c0 -11 3 -14 6 -6 3 7 2 16 -1 19 -3 4 -6 -2 -5 -13z"/>
<path d="M1620 1271 c-6 -39 -10 -76 -8 -83 3 -7 10 23 17 66 7 42 11 80 8 82
-3 3 -10 -26 -17 -65z"/>
<path d="M1942 1320 c0 -14 2 -19 5 -12 2 6 2 18 0 25 -3 6 -5 1 -5 -13z"/>
<path d="M2711 1268 c-16 -103 -31 -248 -30 -283 1 -16 5 -1 10 35 4 36 16
120 25 188 18 131 14 181 -5 60z"/>
<path d="M3844 1250 c0 -52 1 -74 3 -47 2 26 2 68 0 95 -2 26 -3 4 -3 -48z"/>
<path d="M4231 1324 c0 -11 3 -14 6 -6 3 7 2 16 -1 19 -3 4 -6 -2 -5 -13z"/>
<path d="M4382 1315 c0 -16 2 -22 5 -12 2 9 2 23 0 30 -3 6 -5 -1 -5 -18z"/>
<path d="M1331 1314 c0 -11 3 -14 6 -6 3 7 2 16 -1 19 -3 4 -6 -2 -5 -13z"/>
<path d="M1435 1290 c-4 -23 -5 -44 -2 -46 3 -3 8 13 12 36 4 23 5 44 2 46 -3
3 -8 -13 -12 -36z"/>
<path d="M1511 1314 c0 -11 3 -14 6 -6 3 7 2 16 -1 19 -3 4 -6 -2 -5 -13z"/>
<path d="M1521 1259 c-7 -38 -11 -72 -9 -75 3 -2 11 27 18 66 7 39 11 72 8 75
-3 3 -10 -27 -17 -66z"/>
<path d="M1980 1260 c-7 -39 -10 -73 -8 -76 3 -2 10 28 17 67 7 38 11 73 8 75
-3 3 -10 -27 -17 -66z"/>
<path d="M2111 1267 c-12 -68 -14 -93 -7 -86 7 7 27 141 23 146 -3 2 -10 -25
-16 -60z"/>
<path d="M2252 1310 c0 -14 2 -19 5 -12 2 6 2 18 0 25 -3 6 -5 1 -5 -13z"/>
<path d="M2375 1285 c-3 -26 -4 -49 -2 -51 3 -3 8 16 12 41 3 26 4 49 2 51 -3
3 -8 -16 -12 -41z"/>
<path d="M3727 1113 c-8 -258 -9 -398 -2 -392 6 7 19 609 13 609 -3 0 -8 -98
-11 -217z"/>
<path d="M4332 1300 c0 -19 2 -27 5 -17 2 9 2 25 0 35 -3 9 -5 1 -5 -18z"/>
<path d="M4532 1310 c0 -14 2 -19 5 -12 2 6 2 18 0 25 -3 6 -5 1 -5 -13z"/>
<path d="M1776 1289 c-3 -19 -12 -73 -21 -120 -8 -47 -14 -101 -14 -120 1 -32
2 -31 10 11 20 112 40 253 35 257 -3 3 -7 -10 -10 -28z"/>
<path d="M1910 1316 c0 -2 -7 -41 -14 -87 -8 -46 -20 -124 -26 -174 -6 -49
-13 -101 -16 -113 -3 -14 -1 -21 5 -18 5 4 12 37 16 74 3 37 12 103 20 147 21
123 27 175 21 175 -3 0 -6 -2 -6 -4z"/>
<path d="M2302 1295 c0 -16 2 -22 5 -12 2 9 2 23 0 30 -3 6 -5 -1 -5 -18z"/>
<path d="M3387 1246 c-4 -44 -5 -81 -3 -83 6 -7 19 121 14 143 -2 10 -7 -17
-11 -60z"/>
<path d="M3970 1274 c0 -27 5 -56 10 -64 6 -9 7 6 3 45 -7 75 -13 84 -13 19z"/>
<path d="M1346 1274 c-4 -20 -5 -38 -3 -40 3 -3 8 11 11 32 4 20 5 38 3 40 -3
3 -8 -11 -11 -32z"/>
<path d="M1372 1290 c0 -14 2 -19 5 -12 2 6 2 18 0 25 -3 6 -5 1 -5 -13z"/>
<path d="M1392 1290 c0 -14 2 -19 5 -12 2 6 2 18 0 25 -3 6 -5 1 -5 -13z"/>
<path d="M1411 1290 c-1 -14 -4 -36 -6 -50 l-6 -25 11 25 c6 13 9 36 7 50 l-4
25 -2 -25z"/>
<path d="M1741 1236 c-7 -42 -11 -80 -8 -82 7 -7 30 133 25 148 -3 7 -10 -23
-17 -66z"/>
<path d="M3520 1238 c-3 -42 -1 -73 3 -69 4 4 7 39 5 77 l-3 69 -5 -77z"/>
<path d="M3710 1252 l5 -57 3 49 c2 27 0 52 -5 57 -4 4 -6 -18 -3 -49z"/>
<path d="M1481 1284 c0 -11 3 -14 6 -6 3 7 2 16 -1 19 -3 4 -6 -2 -5 -13z"/>
<path d="M1576 1283 c-19 -65 -36 -213 -24 -213 4 0 8 13 8 29 0 16 7 66 16
111 8 45 13 84 11 87 -3 2 -8 -4 -11 -14z"/>
<path d="M1872 1239 c-17 -91 -13 -120 4 -34 8 39 13 77 11 85 -2 8 -9 -15
-15 -51z"/>
<path d="M3651 1284 c0 -11 3 -14 6 -6 3 7 2 16 -1 19 -3 4 -6 -2 -5 -13z"/>
<path d="M4106 1248 c3 -32 2 -79 -3 -105 l-8 -48 -6 60 -6 60 -1 -57 c-1 -32
-6 -58 -12 -58 -6 0 -7 23 -4 58 3 32 1 68 -5 82 -10 22 -11 19 -9 -25 1 -27
-2 -93 -6 -145 -5 -64 -4 -103 3 -120 10 -22 11 -21 7 15 -2 22 -1 60 4 85 6
38 8 29 9 -52 0 -54 5 -98 10 -98 16 0 33 29 28 47 -4 14 -5 13 -6 -4 0 -13
-5 -23 -11 -23 -6 0 -9 33 -8 83 1 65 3 72 6 32 l5 -50 13 60 12 60 1 -79 c1
-44 3 -77 5 -75 2 2 6 54 9 114 2 61 3 95 0 78 -7 -54 -22 -37 -17 20 3 28 0
72 -5 97 l-10 45 5 -57z"/>
<path d="M4232 1275 c0 -16 2 -22 5 -12 2 9 2 23 0 30 -3 6 -5 -1 -5 -18z"/>
<path d="M1495 1250 c-4 -23 -5 -44 -2 -46 3 -3 8 13 12 36 4 23 5 44 2 46 -3
3 -8 -13 -12 -36z"/>
<path d="M1922 1233 c-18 -91 -34 -231 -29 -245 2 -7 7 14 11 47 4 33 14 102
23 153 17 102 13 138 -5 45z"/>
<path d="M2625 1228 c-4 -36 -5 -72 -2 -80 2 -7 8 17 12 54 4 36 5 72 2 80 -2
7 -8 -17 -12 -54z"/>
<path d="M3486 1103 c-3 -104 -8 -225 -11 -270 -2 -46 -1 -83 4 -83 5 0 10 55
10 122 1 68 6 127 10 131 5 5 7 -49 5 -120 -2 -80 0 -118 5 -101 5 15 9 87 10
160 1 73 4 148 7 166 4 20 2 32 -5 32 -7 0 -11 -23 -11 -62 0 -34 -3 -58 -7
-54 -4 4 -6 65 -4 136 1 72 1 130 -2 130 -3 0 -8 -84 -11 -187z"/>
<path d="M3792 1269 c-1 -14 -5 -48 -8 -75 -5 -37 -4 -46 5 -38 8 7 11 34 8
75 -2 35 -4 52 -5 38z"/>
<path d="M4031 1274 c0 -11 3 -14 6 -6 3 7 2 16 -1 19 -3 4 -6 -2 -5 -13z"/>
<path d="M1697 1263 c-11 -37 -29 -171 -25 -183 2 -7 11 34 21 91 15 94 17
138 4 92z"/>
<path d="M1708 1190 c-8 -50 -12 -87 -8 -83 9 10 33 163 27 169 -2 2 -11 -36
-19 -86z"/>
<path d="M2020 1195 c-7 -47 -10 -88 -7 -91 3 -3 10 34 17 81 7 47 10 88 7 91
-3 3 -10 -34 -17 -81z"/>
<path d="M2267 1258 c-4 -13 -9 -51 -11 -83 -5 -54 -4 -52 9 20 13 75 14 114
2 63z"/>
<path d="M3811 1264 c0 -11 3 -14 6 -6 3 7 2 16 -1 19 -3 4 -6 -2 -5 -13z"/>
<path d="M4467 1245 c3 -22 7 -42 9 -44 8 -9 2 45 -6 64 -7 14 -8 8 -3 -20z"/>
<path d="M2235 1225 c-3 -26 -4 -49 -2 -52 3 -3 9 16 12 42 4 25 5 48 2 51 -2
3 -8 -16 -12 -41z"/>
<path d="M2926 1233 c-3 -21 -5 -60 -5 -88 1 -38 4 -30 10 35 8 89 6 117 -5
53z"/>
<path d="M3334 1256 c-3 -7 -4 -42 -2 -77 l3 -64 5 78 c5 77 4 89 -6 63z"/>
<path d="M3632 1250 c0 -14 2 -19 5 -12 2 6 2 18 0 25 -3 6 -5 1 -5 -13z"/>
<path d="M4365 1186 c0 -46 3 -79 7 -73 9 15 9 116 0 139 -4 10 -7 -20 -7 -66z"/>
<path d="M1442 1211 c-7 -29 -12 -67 -11 -84 1 -19 7 -1 15 43 16 88 13 116
-4 41z"/>
<path d="M1582 1187 c-7 -43 -12 -90 -11 -105 1 -15 7 16 15 68 8 52 12 100
11 105 -2 6 -9 -25 -15 -68z"/>
<path d="M2289 1244 c0 -10 -6 -54 -13 -96 -7 -43 -10 -78 -6 -78 8 0 33 181
25 188 -3 3 -5 -3 -6 -14z"/>
<path d="M2416 1213 c-17 -119 -17 -119 -7 -96 11 25 26 143 18 143 -2 0 -8
-21 -11 -47z"/>
<path d="M3056 1208 c-3 -29 -7 -114 -10 -188 -5 -117 -4 -131 8 -105 7 17 9
32 4 33 -4 2 -6 7 -4 11 3 4 8 59 11 122 3 63 8 126 11 141 3 14 1 29 -5 32
-5 4 -12 -16 -15 -46z"/>
<path d="M3276 1183 c-9 -94 -25 -487 -21 -491 7 -7 14 87 20 243 3 88 8 197
12 243 7 104 -2 108 -11 5z"/>
<path d="M3646 1098 c-8 -199 -9 -378 -3 -384 2 -3 8 117 12 266 4 149 5 273
3 276 -3 2 -8 -69 -12 -158z"/>
<path d="M4491 1244 c0 -11 3 -14 6 -6 3 7 2 16 -1 19 -3 4 -6 -2 -5 -13z"/>
<path d="M1381 1234 c0 -11 3 -14 6 -6 3 7 2 16 -1 19 -3 4 -6 -2 -5 -13z"/>
<path d="M2822 1194 c-1 -34 -4 -97 -7 -140 -3 -56 -2 -65 3 -32 4 26 12 51
16 55 5 4 5 -14 2 -41 -5 -33 -4 -46 3 -41 7 3 10 37 9 83 -1 51 -3 65 -7 42
-4 -26 -7 -13 -11 50 -6 78 -6 80 -8 24z"/>
<path d="M2982 1230 c0 -14 2 -19 5 -12 2 6 2 18 0 25 -3 6 -5 1 -5 -13z"/>
<path d="M3253 1205 c0 -27 2 -38 4 -22 2 15 2 37 0 50 -2 12 -4 0 -4 -28z"/>
<path d="M4212 1230 c0 -14 2 -19 5 -12 2 6 2 18 0 25 -3 6 -5 1 -5 -13z"/>
<path d="M4395 1190 c0 -55 1 -59 9 -32 5 19 5 45 0 64 -8 27 -9 23 -9 -32z"/>
<path d="M2521 1232 c-1 -7 -6 -56 -12 -108 -6 -53 -8 -98 -6 -100 7 -7 30
193 24 208 -4 10 -6 10 -6 0z"/>
<path d="M3873 1205 c0 -22 2 -30 4 -17 2 12 2 30 0 40 -3 9 -5 -1 -4 -23z"/>
<path d="M4423 1200 c0 -25 2 -35 4 -22 2 12 2 32 0 45 -2 12 -4 2 -4 -23z"/>
<path d="M2385 1183 c-3 -27 -8 -59 -11 -73 -3 -18 -2 -21 5 -10 11 17 26 130
18 130 -3 0 -9 -21 -12 -47z"/>
<path d="M2996 1093 c-4 -76 -8 -192 -11 -258 -3 -103 -2 -109 5 -45 10 97 25
440 18 440 -3 0 -8 -62 -12 -137z"/>
<path d="M3683 1190 c0 -25 2 -35 4 -22 2 12 2 32 0 45 -2 12 -4 2 -4 -23z"/>
<path d="M2175 1189 c-13 -77 -30 -238 -24 -231 8 9 41 253 35 259 -3 3 -7
-10 -11 -28z"/>
<path d="M2359 1198 c0 -13 -4 -47 -8 -76 -4 -29 -4 -49 0 -45 9 10 23 143 15
143 -3 0 -6 -10 -7 -22z"/>
<path d="M3413 1170 c0 -30 2 -43 4 -27 2 15 2 39 0 55 -2 15 -4 2 -4 -28z"/>
<path d="M3807 1078 c-4 -79 -6 -186 -5 -238 l1 -95 7 95 c8 104 13 380 7 380
-2 0 -7 -64 -10 -142z"/>
<path d="M4452 1200 c0 -14 2 -19 5 -12 2 6 2 18 0 25 -3 6 -5 1 -5 -13z"/>
<path d="M1455 1155 c-3 -31 -4 -59 -2 -62 3 -2 9 21 12 52 4 31 5 58 2 61 -2
3 -8 -20 -12 -51z"/>
<path d="M2336 1199 c-10 -27 -23 -150 -15 -142 4 4 12 40 17 78 9 67 8 94 -2
64z"/>
<path d="M3620 1200 c0 -5 5 -10 11 -10 5 0 7 5 4 10 -3 6 -8 10 -11 10 -2 0
-4 -4 -4 -10z"/>
<path d="M1632 1175 c0 -16 2 -22 5 -12 2 9 2 23 0 30 -3 6 -5 -1 -5 -18z"/>
<path d="M2952 1180 c0 -14 2 -19 5 -12 2 6 2 18 0 25 -3 6 -5 1 -5 -13z"/>
<path d="M1413 1150 c0 -25 2 -35 4 -22 2 12 2 32 0 45 -2 12 -4 2 -4 -23z"/>
<path d="M3143 1135 c0 -33 2 -45 4 -27 2 18 2 45 0 60 -2 15 -4 0 -4 -33z"/>
<path d="M3296 1068 c-14 -286 -18 -423 -13 -418 9 9 33 540 24 540 -3 0 -8
-55 -11 -122z"/>
<path d="M3538 1080 c-5 -63 -7 -167 -6 -230 l1 -115 9 165 c4 91 7 194 6 230
-3 53 -4 44 -10 -50z"/>
<path d="M1475 1130 c-4 -28 -5 -54 -2 -56 3 -3 8 18 12 46 4 28 5 54 2 56 -3
3 -8 -18 -12 -46z"/>
<path d="M2586 1105 c-4 -42 -10 -83 -13 -92 -4 -10 -2 -14 4 -10 6 4 14 33
17 64 4 32 9 70 12 86 3 15 1 27 -4 27 -5 0 -12 -34 -16 -75z"/>
<path d="M3456 1048 c-12 -276 -13 -319 -6 -311 9 9 25 443 17 443 -3 0 -8
-60 -11 -132z"/>
<path d="M1597 1135 c-4 -22 -6 -53 -6 -70 1 -16 5 -3 10 30 10 67 6 102 -4
40z"/>
<path d="M1955 1110 c-4 -34 -5 -63 -2 -66 3 -3 8 22 12 56 4 34 5 63 2 66 -3
3 -8 -22 -12 -56z"/>
<path d="M2087 1118 c-14 -99 -19 -158 -14 -158 6 0 30 190 24 196 -3 3 -7
-14 -10 -38z"/>
<path d="M2215 1093 c-3 -38 -8 -79 -11 -93 -3 -18 -2 -21 5 -10 10 17 26 170
18 170 -3 0 -8 -30 -12 -67z"/>
<path d="M2891 1083 c1 -86 6 -81 12 15 2 34 0 62 -5 62 -4 0 -7 -35 -7 -77z"/>
<path d="M3027 1153 c-3 -5 -7 -89 -10 -188 -5 -179 4 -121 16 103 5 87 4 102
-6 85z"/>
<path d="M3427 1039 c-4 -67 -6 -168 -5 -223 l1 -101 8 115 c10 157 14 319 7
325 -3 3 -8 -50 -11 -116z"/>
<path d="M3617 1058 c-7 -131 -9 -354 -3 -348 6 7 20 450 14 450 -3 0 -8 -46
-11 -102z"/>
<path d="M3697 1023 c-4 -75 -6 -177 -5 -227 1 -80 2 -85 7 -36 8 64 14 400 8
400 -2 0 -7 -61 -10 -137z"/>
<path d="M1502 1139 c-1 -9 -5 -32 -8 -50 -4 -28 -3 -31 6 -16 6 9 9 32 7 50
-2 17 -5 25 -5 16z"/>
<path d="M3245 1093 c-9 -82 -13 -87 -15 -18 -2 58 -2 59 -10 20 -4 -22 -11
-130 -14 -240 -4 -110 -9 -208 -12 -217 -3 -10 -1 -18 5 -18 7 0 12 27 12 68
1 37 3 74 4 82 1 8 3 52 4 98 0 47 5 82 11 82 6 0 8 -26 5 -67 -10 -142 -13
-267 -6 -243 4 14 8 57 9 95 2 39 7 146 13 238 10 166 7 235 -6 120z m-11
-108 c-4 -8 -8 -15 -10 -15 -2 0 -4 7 -4 15 0 8 4 15 10 15 5 0 7 -7 4 -15z"/>
<path d="M3376 1078 c-10 -126 -13 -308 -6 -308 4 0 10 84 14 186 7 188 3 257
-8 122z"/>
<path d="M3596 1135 c-3 -8 -1 -15 4 -15 6 0 10 7 10 15 0 8 -2 15 -4 15 -2 0
-6 -7 -10 -15z"/>
<path d="M2951 1124 c0 -11 3 -14 6 -6 3 7 2 16 -1 19 -3 4 -6 -2 -5 -13z"/>
<path d="M3109 1093 c-1 -27 -4 -110 -8 -186 -3 -75 -3 -137 2 -137 4 0 8 33
9 73 2 103 5 163 12 235 4 40 3 62 -4 62 -5 0 -10 -21 -11 -47z"/>
<path d="M3346 1028 c-9 -176 -12 -358 -5 -350 8 8 23 462 16 462 -3 0 -8 -51
-11 -112z"/>
<path d="M1621 1115 c0 -11 -4 -31 -7 -45 -5 -19 -4 -22 5 -14 7 6 11 26 8 45
-2 19 -5 25 -6 14z"/>
<path d="M1841 1037 c-7 -54 -11 -101 -8 -103 7 -7 30 161 25 183 -2 10 -10
-26 -17 -80z"/>
<path d="M3676 1098 c-10 -68 -16 -392 -7 -383 8 8 21 415 14 415 -1 0 -4 -15
-7 -32z"/>
<path d="M3779 1063 c0 -38 -2 -126 -4 -198 -2 -71 0 -116 4 -100 4 17 8 91 9
165 2 74 5 150 9 168 3 20 1 32 -6 32 -7 0 -11 -25 -12 -67z"/>
<path d="M3837 1086 c-4 -27 -6 -110 -6 -185 l2 -136 9 165 c9 176 7 236 -5
156z"/>
<path d="M1722 1095 c0 -16 2 -22 5 -12 2 9 2 23 0 30 -3 6 -5 -1 -5 -18z"/>
<path d="M2475 1067 c-4 -32 -5 -60 -2 -63 8 -8 20 79 15 102 -3 11 -8 -7 -13
-39z"/>
<path d="M2613 1080 c0 -25 2 -35 4 -22 2 12 2 32 0 45 -2 12 -4 2 -4 -23z"/>
<path d="M3892 1105 c-1 -11 -4 -87 -7 -170 -3 -116 -2 -139 6 -102 5 26 8
103 6 170 -1 67 -4 113 -5 102z"/>
<path d="M3327 1103 c-3 -5 -8 -107 -10 -228 -3 -121 -3 -197 -1 -170 8 90 22
400 19 403 -2 2 -5 0 -8 -5z"/>
<path d="M2235 1055 c-4 -25 -5 -48 -2 -51 2 -3 8 16 12 41 3 26 4 49 2 52 -3
3 -9 -16 -12 -42z"/>
<path d="M2972 1075 c0 -16 2 -22 5 -12 2 9 2 23 0 30 -3 6 -5 -1 -5 -18z"/>
<path d="M3187 1030 c-10 -117 -20 -416 -14 -410 7 7 31 454 25 471 -3 8 -8
-20 -11 -61z"/>
<path d="M3588 1034 c-1 -38 -1 -105 2 -149 5 -73 6 -68 10 60 3 77 2 144 -2
149 -3 4 -8 -23 -10 -60z"/>
<path d="M3859 1054 c0 -27 -2 -101 -5 -164 -3 -76 -1 -110 5 -100 11 18 18
297 7 307 -3 3 -6 -16 -7 -43z"/>
<path d="M2003 1055 c0 -22 2 -30 4 -17 2 12 2 30 0 40 -3 9 -5 -1 -4 -23z"/>
<path d="M1792 1059 c-1 -15 -5 -42 -8 -60 -5 -26 -4 -31 5 -23 8 7 11 30 8
60 -2 27 -4 37 -5 23z"/>
<path d="M2762 1033 c-1 -28 -5 -60 -8 -70 -5 -14 -4 -15 5 -7 8 7 11 33 8 70
l-3 59 -2 -52z"/>
<path d="M2922 1055 c0 -16 2 -22 5 -12 2 9 2 23 0 30 -3 6 -5 -1 -5 -18z"/>
<path d="M3404 985 c0 -55 1 -76 3 -47 2 29 2 74 0 100 -2 26 -3 2 -3 -53z"/>
<path d="M1916 1018 c-4 -29 -9 -69 -13 -88 -4 -24 -2 -32 5 -25 10 10 29 165
19 165 -2 0 -7 -24 -11 -52z"/>
<path d="M2941 1054 c0 -11 3 -14 6 -6 3 7 2 16 -1 19 -3 4 -6 -2 -5 -13z"/>
<path d="M3159 1023 c0 -27 -2 -75 -4 -108 -10 -198 -12 -296 -5 -250 11 68
25 405 17 405 -4 0 -7 -21 -8 -47z"/>
<path d="M2262 1040 c0 -14 2 -19 5 -12 2 6 2 18 0 25 -3 6 -5 1 -5 -13z"/>
<path d="M2045 1003 c-3 -27 -9 -64 -12 -83 -3 -23 -1 -32 5 -25 10 10 28 155
19 155 -3 0 -8 -21 -12 -47z"/>
<path d="M1944 1016 c-3 -8 -4 -23 -2 -33 3 -11 6 -6 9 15 6 34 2 42 -7 18z"/>
<path d="M2522 1000 c0 -19 2 -27 5 -17 2 9 2 25 0 35 -3 9 -5 1 -5 -18z"/>
<path d="M2599 1003 c0 -16 -2 -36 -4 -45 -2 -10 1 -18 6 -18 5 0 9 20 9 45 0
48 -9 64 -11 18z"/>
<path d="M2971 1014 c0 -11 3 -14 6 -6 3 7 2 16 -1 19 -3 4 -6 -2 -5 -13z"/>
<path d="M3132 965 l1 -70 7 55 c4 30 3 62 -1 70 -5 9 -8 -14 -7 -55z"/>
<path d="M1990 988 c0 -13 -3 -41 -7 -63 -3 -22 -3 -37 1 -34 11 11 24 109 15
115 -5 3 -9 -5 -9 -18z"/>
<path d="M2653 970 c0 -25 2 -35 4 -22 2 12 2 32 0 45 -2 12 -4 2 -4 -23z"/>
<path d="M2122 965 c0 -16 2 -22 5 -12 2 9 2 23 0 30 -3 6 -5 -1 -5 -18z"/>
<path d="M2572 965 c0 -16 2 -22 5 -12 2 9 2 23 0 30 -3 6 -5 -1 -5 -18z"/>
<path d="M2936 943 c-7 -42 -8 -149 -2 -142 6 6 18 179 13 179 -2 0 -7 -17
-11 -37z"/>
<path d="M1882 940 c0 -19 2 -27 5 -17 2 9 2 25 0 35 -3 9 -5 1 -5 -18z"/>
<path d="M1933 925 c0 -22 2 -30 4 -17 2 12 2 30 0 40 -3 9 -5 -1 -4 -23z"/>
<path d="M2061 924 c0 -11 3 -14 6 -6 3 7 2 16 -1 19 -3 4 -6 -2 -5 -13z"/>
<path d="M2962 890 c-1 -30 -5 -66 -8 -80 -5 -19 -4 -22 5 -14 8 7 11 35 8 80
-3 65 -3 66 -5 14z"/>
<path d="M4047 906 c-4 -10 -5 -21 -2 -24 9 -9 17 6 13 25 -3 17 -4 17 -11 -1z"/>
<path d="M3038 840 c-2 -22 0 -40 4 -40 5 0 8 18 8 40 0 22 -2 40 -4 40 -2 0
-6 -18 -8 -40z"/>
<path d="M3391 789 c2 -90 2 -92 9 -35 7 54 4 115 -6 125 -2 2 -3 -38 -3 -90z"/>
<path d="M3121 773 c-1 -43 0 -75 2 -73 9 10 17 150 9 150 -5 0 -10 -35 -11
-77z"/>
<path d="M3029 746 c-2 -24 -1 -42 2 -40 9 5 16 84 8 84 -4 0 -9 -20 -10 -44z"/>
<path d="M2951 764 c0 -11 3 -14 6 -6 3 7 2 16 -1 19 -3 4 -6 -2 -5 -13z"/>
<path d="M3582 750 c0 -19 2 -27 5 -17 2 9 2 25 0 35 -3 9 -5 1 -5 -18z"/>
<path d="M3747 767 c-3 -8 -1 -20 4 -28 6 -10 9 -7 9 14 0 29 -5 35 -13 14z"/>
<path d="M3003 720 c0 -25 2 -35 4 -22 2 12 2 32 0 45 -2 12 -4 2 -4 -23z"/>
<path d="M3360 723 c0 -28 3 -34 10 -23 13 20 13 47 0 55 -6 4 -10 -9 -10 -32z"/>
<path d="M3088 690 c-1 -33 0 -60 5 -60 4 0 7 13 7 29 0 16 3 43 6 60 4 19 2
31 -4 31 -6 0 -12 -27 -14 -60z"/>
<path d="M3252 655 c0 -16 2 -22 5 -12 2 9 2 23 0 30 -3 6 -5 -1 -5 -18z"/>
<path d="M3112 640 c0 -14 2 -19 5 -12 2 6 2 18 0 25 -3 6 -5 1 -5 -13z"/>
</g>
</svg>
